<svg width="14" height="14" viewBox="0 0 14 14" fill="none" xmlns="http://www.w3.org/2000/svg">
<g clip-path="url(#clip0_327_397)">
<path d="M8.00187 4.00002C8.00187 3.00002 8.50187 3.00002 9.00187 3.00002H9.60188C9.70205 3.00137 9.80148 2.98263 9.8943 2.94491C9.98711 2.90719 10.0714 2.85126 10.1423 2.78042C10.2131 2.70958 10.269 2.62526 10.3068 2.53244C10.3445 2.43963 10.3632 2.3402 10.3619 2.24002V1.30002C10.3619 1.19937 10.3419 1.09972 10.3031 1.00685C10.2643 0.913987 10.2074 0.829757 10.1358 0.759053C10.0641 0.688348 9.97915 0.632577 9.88579 0.594976C9.79242 0.557376 9.69252 0.538696 9.59188 0.54002L8.17188 0.52002C7.7584 0.504028 7.34639 0.577944 6.96426 0.736667C6.58214 0.895389 6.239 1.13514 5.95854 1.43937C5.67808 1.7436 5.46697 2.10506 5.33979 2.49881C5.21261 2.89256 5.17237 3.30921 5.22187 3.72002V5.17002H4.43187C4.23031 5.17002 4.037 5.25009 3.89447 5.39262C3.75195 5.53515 3.67187 5.72846 3.67188 5.93002V6.87002C3.67188 7.07158 3.75195 7.26489 3.89447 7.40742C4.037 7.54995 4.23031 7.63002 4.43187 7.63002H5.22187V13C5.22187 13.1326 5.27455 13.2598 5.36832 13.3536C5.46209 13.4473 5.58927 13.5 5.72187 13.5H7.53188C7.65922 13.4924 7.77882 13.4363 7.86619 13.3434C7.95356 13.2504 8.0021 13.1276 8.00187 13V7.63002H8.88188C9.08344 7.63002 9.27675 7.54995 9.41928 7.40742C9.5618 7.26489 9.64188 7.07158 9.64188 6.87002V5.93002C9.64188 5.72846 9.5618 5.53515 9.41928 5.39262C9.27675 5.25009 9.08344 5.17002 8.88188 5.17002H8.00187V4.00002Z" stroke="#5D1F2A" stroke-linecap="round" stroke-linejoin="round"/>
</g>
<defs>
<clipPath id="clip0_327_397">
<rect width="14" height="14" fill="white"/>
</clipPath>
</defs>
</svg>
