<svg width="14" height="14" viewBox="0 0 14 14" fill="none" xmlns="http://www.w3.org/2000/svg">
<g clip-path="url(#clip0_265_968)">
<path d="M8.75966 12.9997C9.37549 13.397 10.1093 13.5701 10.8378 13.49C11.5663 13.4099 12.2449 13.0814 12.7597 12.5597L13.2097 12.1197C13.4069 11.9179 13.5174 11.6469 13.5174 11.3647C13.5174 11.0825 13.4069 10.8115 13.2097 10.6097L11.2997 8.7197C11.0996 8.52305 10.8302 8.41285 10.5497 8.41285C10.2691 8.41285 9.99977 8.52305 9.79966 8.7197V8.7197C9.59787 8.91698 9.32687 9.02745 9.04466 9.02745C8.76245 9.02745 8.49146 8.91698 8.28966 8.7197L5.28966 5.7197C5.18958 5.62108 5.11011 5.50354 5.05587 5.37393C5.00162 5.24431 4.97369 5.10521 4.97369 4.9647C4.97369 4.82419 5.00162 4.68509 5.05587 4.55547C5.11011 4.42586 5.18958 4.30832 5.28966 4.2097V4.2097C5.48632 4.0096 5.59651 3.74026 5.59651 3.4597C5.59651 3.17914 5.48632 2.9098 5.28966 2.7097L3.38966 0.8097C3.18787 0.612415 2.91687 0.501953 2.63466 0.501953C2.35245 0.501953 2.08146 0.612415 1.87966 0.8097L1.43966 1.2597C0.918008 1.77444 0.589497 2.4531 0.509366 3.18157C0.429235 3.91003 0.602371 4.64387 0.999662 5.2597C3.06971 8.31043 5.7036 10.9375 8.75966 12.9997V12.9997Z" fill="#671930" stroke="#671930" stroke-linecap="round" stroke-linejoin="round"/>
</g>
<defs>
<clipPath id="clip0_265_968">
<rect width="14" height="14" fill="white"/>
</clipPath>
</defs>
</svg>
