<svg width="14" height="14" viewBox="0 0 14 14" fill="none" xmlns="http://www.w3.org/2000/svg">
<path d="M4.00191 9.40002C3.28785 9.96089 2.46826 10.3724 1.59191 10.61C1.49538 10.6451 1.41199 10.709 1.35305 10.793C1.29411 10.8771 1.2625 10.9773 1.2625 11.08C1.2625 11.1827 1.29411 11.2829 1.35305 11.367C1.41199 11.4511 1.49538 11.515 1.59191 11.55C8.51191 14.39 12.9119 10 12.2419 5.13002L13.3619 2.81002H12.0619C10.4419 0.820022 6.14191 0.920022 6.85191 5.16002C6.85191 5.16002 4.55191 5.57002 1.61191 2.68002C1.5439 2.61288 1.45808 2.56663 1.3646 2.54676C1.27112 2.52689 1.1739 2.53422 1.08446 2.56789C0.995021 2.60156 0.917104 2.66016 0.859939 2.73675C0.802773 2.81333 0.768754 2.9047 0.761909 3.00002C0.451041 4.27787 0.606613 5.62472 1.20061 6.79805C1.79461 7.97138 2.788 8.89409 4.00191 9.40002V9.40002Z" stroke="#5D1F2A" stroke-linecap="round" stroke-linejoin="round"/>
</svg>
