<svg width="14" height="14" viewBox="0 0 14 14" fill="none" xmlns="http://www.w3.org/2000/svg">
<path d="M11.5 2H2.5C1.39543 2 0.5 2.89543 0.5 4V10C0.5 11.1046 1.39543 12 2.5 12H11.5C12.6046 12 13.5 11.1046 13.5 10V4C13.5 2.89543 12.6046 2 11.5 2Z" stroke="#5D1F2A" stroke-linecap="round" stroke-linejoin="round"/>
<path d="M5.30876 9.31998V5.11998C5.30668 5.04907 5.32397 4.97894 5.35878 4.91713C5.39359 4.85532 5.4446 4.80417 5.50632 4.7692C5.56804 4.73422 5.63813 4.71675 5.70904 4.71865C5.77995 4.72055 5.84901 4.74175 5.90876 4.77998L9.50876 6.87998C9.56891 6.91527 9.61879 6.96568 9.65345 7.0262C9.68811 7.08671 9.70634 7.15524 9.70634 7.22498C9.70634 7.29472 9.68811 7.36325 9.65345 7.42376C9.61879 7.48428 9.56891 7.53469 9.50876 7.56998L5.90876 9.66998C5.84769 9.70524 5.77838 9.72374 5.70786 9.72358C5.63734 9.72342 5.56811 9.70462 5.5072 9.66909C5.44628 9.63356 5.39585 9.58255 5.361 9.52124C5.32615 9.45993 5.30813 9.3905 5.30876 9.31998V9.31998Z" stroke="#5D1F2A" stroke-linecap="round" stroke-linejoin="round"/>
</svg>
