<svg width="22" height="22" viewBox="0 0 22 22" fill="none" xmlns="http://www.w3.org/2000/svg">
<path d="M11 1C12.7504 1 14.4292 1.69587 15.6669 2.93453C16.9046 4.17318 17.6 5.85316 17.6 7.60488C17.6 14.9488 20.2769 16.396 21 16.396H1C1.73846 16.396 4.4 14.9334 4.4 7.60488C4.4 5.85316 5.09536 4.17318 6.3331 2.93453C7.57084 1.69587 9.24957 1 11 1V1Z" stroke="#444444" stroke-width="2" stroke-linecap="round" stroke-linejoin="round"/>
<path d="M8.69336 19.2148C8.82635 19.7256 9.12505 20.1778 9.54267 20.5006C9.96029 20.8234 10.4732 20.9985 11.0011 20.9985C11.5289 20.9985 12.0418 20.8234 12.4594 20.5006C12.877 20.1778 13.1758 19.7256 13.3087 19.2148" stroke="#444444" stroke-width="2" stroke-linecap="round" stroke-linejoin="round"/>
</svg>
