<svg width="22" height="23" viewBox="0 0 22 23" fill="none" xmlns="http://www.w3.org/2000/svg">
<path d="M17.8238 21.7262H4.20806C3.75809 21.7289 3.31264 21.6363 2.90099 21.4546C2.48934 21.2729 2.12081 21.0061 1.81962 20.6718C1.51844 20.3375 1.29142 19.9432 1.15349 19.5149C1.01556 19.0866 0.969851 18.6339 1.01936 18.1867L2.08757 8.79596C2.13092 8.40419 2.31785 8.04237 2.61228 7.78033C2.90672 7.51828 3.28778 7.37459 3.68193 7.37698H18.35C18.7441 7.37459 19.1252 7.51828 19.4196 7.78033C19.714 8.04237 19.901 8.40419 19.9443 8.79596L20.9806 18.1867C21.0299 18.6313 20.985 19.0812 20.8489 19.5073C20.7129 19.9334 20.4887 20.3261 20.191 20.6599C19.8933 20.9937 19.5287 21.2612 19.1208 21.4449C18.713 21.6286 18.2711 21.7244 17.8238 21.7262Z" stroke="#444444" stroke-width="2" stroke-linecap="round" stroke-linejoin="round"/>
<path d="M4.63672 7.37741C4.63672 5.68601 5.30862 4.0639 6.50462 2.8679C7.70061 1.6719 9.32273 1 11.0141 1C12.7055 1 14.3276 1.6719 15.5236 2.8679C16.7196 4.0639 17.3915 5.68601 17.3915 7.37741" stroke="#444444" stroke-width="2" stroke-linecap="round" stroke-linejoin="round"/>
<path d="M7.0293 12.1602H15.0011" stroke="#444444" stroke-width="2" stroke-linecap="round" stroke-linejoin="round"/>
</svg>
