<svg width="14" height="14" viewBox="0 0 14 14" fill="none" xmlns="http://www.w3.org/2000/svg">
<path d="M8 3.99996C8 2.99996 8.5 2.99996 9 2.99996H9.6C9.70018 3.0013 9.79961 2.98256 9.89242 2.94485C9.98524 2.90713 10.0696 2.8512 10.1404 2.78036C10.2112 2.70951 10.2672 2.6252 10.3049 2.53238C10.3426 2.43957 10.3613 2.34014 10.36 2.23996V1.29996C10.36 1.19931 10.34 1.09966 10.3012 1.00679C10.2624 0.913926 10.2055 0.829696 10.1339 0.758992C10.0622 0.688287 9.97727 0.632516 9.88391 0.594915C9.79054 0.557315 9.69064 0.538635 9.59 0.539959L8.17 0.519959C7.75653 0.503967 7.34451 0.577883 6.96238 0.736606C6.58026 0.895328 6.23712 1.13508 5.95666 1.43931C5.6762 1.74354 5.46509 2.105 5.33791 2.49875C5.21073 2.89249 5.1705 3.30915 5.22 3.71996V5.16996H4.43C4.22843 5.16996 4.03512 5.25003 3.8926 5.39256C3.75007 5.53509 3.67 5.72839 3.67 5.92996V6.86996C3.67 7.07152 3.75007 7.26483 3.8926 7.40736C4.03512 7.54989 4.22843 7.62996 4.43 7.62996H5.22V13C5.22 13.1326 5.27268 13.2597 5.36644 13.3535C5.46021 13.4473 5.58739 13.5 5.72 13.5H7.53C7.65734 13.4923 7.77694 13.4363 7.86431 13.3433C7.95169 13.2504 8.00023 13.1275 8 13V7.62996H8.88C9.08156 7.62996 9.27487 7.54989 9.4174 7.40736C9.55993 7.26483 9.64 7.07152 9.64 6.86996V5.92996C9.64 5.72839 9.55993 5.53509 9.4174 5.39256C9.27487 5.25003 9.08156 5.16996 8.88 5.16996H8V3.99996Z" fill="#3E2523"/>
</svg>
