<svg width="15" height="12" viewBox="0 0 15 12" fill="none" xmlns="http://www.w3.org/2000/svg">
<path d="M12.083 0.5C13.4637 0.500058 14.583 1.61932 14.583 3V9C14.583 10.3807 13.4637 11.4999 12.083 11.5H3.08301C1.7023 11.5 0.583008 10.3807 0.583008 9V3C0.583008 1.61929 1.7023 0.5 3.08301 0.5H12.083ZM6.29297 3.71875C6.22218 3.71689 6.15245 3.73464 6.09082 3.76953C6.0292 3.80445 5.97817 3.85531 5.94336 3.91699C5.90855 3.9788 5.89049 4.04921 5.89258 4.12012V8.32031C5.892 8.39072 5.91052 8.46027 5.94531 8.52148C5.98016 8.58268 6.03097 8.63346 6.0918 8.66895C6.15264 8.70437 6.22158 8.72348 6.29199 8.72363C6.36251 8.72379 6.43209 8.70519 6.49316 8.66992L10.0928 6.57031C10.1529 6.53505 10.2027 6.48427 10.2373 6.42383C10.272 6.36331 10.29 6.29435 10.29 6.22461C10.29 6.155 10.2719 6.08678 10.2373 6.02637C10.2026 5.96585 10.1529 5.91517 10.0928 5.87988L6.49316 3.78027C6.43341 3.74204 6.36388 3.72065 6.29297 3.71875Z" fill="#3E2523"/>
</svg>
