<svg width="14" height="14" viewBox="0 0 14 14" fill="none" xmlns="http://www.w3.org/2000/svg">
<path d="M7 13.5V5.5" stroke="#222222" stroke-width="1.2" stroke-linecap="round" stroke-linejoin="round"/>
<path d="M9 7.5L7 5.5L5 7.5" stroke="#222222" stroke-width="1.2" stroke-linecap="round" stroke-linejoin="round"/>
<path d="M3.5 12.4802C2.31537 11.7232 1.40809 10.6025 0.914247 9.28627C0.4204 7.97002 0.366606 6.52914 0.76093 5.17974C1.15525 3.83034 1.97644 2.64515 3.10133 1.80193C4.22621 0.958718 5.59416 0.50293 7 0.50293C8.40584 0.50293 9.77378 0.958718 10.8987 1.80193C12.0236 2.64515 12.8447 3.83034 13.2391 5.17974C13.6334 6.52914 13.5796 7.97002 13.0858 9.28627C12.5919 10.6025 11.6846 11.7232 10.5 12.4802" stroke="#222222" stroke-width="1.2" stroke-linecap="round" stroke-linejoin="round"/>
</svg>
