<svg width="14" height="14" viewBox="0 0 14 14" fill="none" xmlns="http://www.w3.org/2000/svg">
<path d="M4 9.40002C3.28594 9.96089 2.46635 10.3724 1.59 10.61C1.49347 10.6451 1.41007 10.709 1.35114 10.793C1.2922 10.8771 1.26059 10.9773 1.26059 11.08C1.26059 11.1827 1.2922 11.2829 1.35114 11.367C1.41007 11.4511 1.49347 11.515 1.59 11.55C8.51 14.39 12.91 10 12.24 5.13002L13.36 2.81002H12.06C10.44 0.820022 6.14 0.920022 6.85 5.16002C6.85 5.16002 4.55 5.57002 1.61 2.68002C1.54199 2.61288 1.45616 2.56663 1.36269 2.54676C1.26921 2.52689 1.17199 2.53422 1.08255 2.56789C0.993109 2.60156 0.915193 2.66016 0.858027 2.73675C0.800862 2.81333 0.766843 2.9047 0.759998 3.00002C0.44913 4.27787 0.604702 5.62472 1.1987 6.79805C1.7927 7.97138 2.78609 8.89409 4 9.40002Z" fill="#3E2523" stroke="#3E2523" stroke-linecap="round" stroke-linejoin="round"/>
</svg>
