<svg width="14" height="15" viewBox="0 0 14 15" fill="none" xmlns="http://www.w3.org/2000/svg">
<g clip-path="url(#clip0_1545_12193)">
<path d="M12.93 12.09C8.9965 11.53 5.0035 11.53 1.07 12.09C0.99955 12.1 0.927785 12.0948 0.859501 12.0748C0.791216 12.0548 0.727984 12.0205 0.67403 11.9741C0.620075 11.9277 0.576641 11.8703 0.54663 11.8058C0.516618 11.7413 0.50072 11.6711 0.499998 11.6V3.23999C0.499036 3.16832 0.513807 3.09731 0.543272 3.03198C0.572737 2.96664 0.616177 2.90856 0.67053 2.86183C0.724882 2.81511 0.788824 2.78088 0.857845 2.76155C0.926866 2.74223 0.999286 2.73828 1.07 2.74999C5.0042 3.3 8.99579 3.3 12.93 2.74999C12.9999 2.73842 13.0714 2.74215 13.1397 2.7609C13.208 2.77965 13.2715 2.81298 13.3256 2.85861C13.3798 2.90423 13.4235 2.96106 13.4536 3.02517C13.4837 3.08929 13.4995 3.15916 13.5 3.22999V11.59C13.5007 11.662 13.4859 11.7333 13.4565 11.799C13.4271 11.8647 13.3839 11.9233 13.3297 11.9708C13.2756 12.0183 13.2119 12.0535 13.1429 12.0741C13.0739 12.0946 13.0013 12.1001 12.93 12.09V12.09Z" stroke="#000001" stroke-linecap="round" stroke-linejoin="round"/>
<path d="M7 11.6699V14.1699" stroke="#000001" stroke-linecap="round" stroke-linejoin="round"/>
<path d="M4.5 14.1699H9.5" stroke="#000001" stroke-linecap="round" stroke-linejoin="round"/>
</g>
<defs>
<clipPath id="clip0_1545_12193">
<rect width="14" height="14" fill="white" transform="translate(0 0.75)"/>
</clipPath>
</defs>
</svg>
