<svg width="15" height="14" viewBox="0 0 15 14" fill="none" xmlns="http://www.w3.org/2000/svg">
<g clip-path="url(#clip0_1545_8217)">
<path d="M2.01996 2.5C1.75474 2.5 1.50039 2.60536 1.31285 2.79289C1.12532 2.98043 1.01996 3.23478 1.01996 3.5V12.5C1.01996 12.7652 1.12532 13.0196 1.31285 13.2071C1.50039 13.3946 1.75474 13.5 2.01996 13.5H13.02C13.2852 13.5 13.5395 13.3946 13.7271 13.2071C13.9146 13.0196 14.02 12.7652 14.02 12.5V3.5C14.02 3.23478 13.9146 2.98043 13.7271 2.79289C13.5395 2.60536 13.2852 2.5 13.02 2.5H11.02" stroke="#000001" stroke-linecap="round" stroke-linejoin="round"/>
<path d="M4.01996 0.5V4.5" stroke="#000001" stroke-linecap="round" stroke-linejoin="round"/>
<path d="M11.02 0.5V4.5" stroke="#000001" stroke-linecap="round" stroke-linejoin="round"/>
<path d="M4.01996 2.5H9.01996" stroke="#000001" stroke-linecap="round" stroke-linejoin="round"/>
<path d="M7.51996 7.49988C8.51996 5.49988 10.52 6.49988 10.52 7.99988C10.52 9.99988 7.51996 10.9999 7.51996 10.9999C7.51996 10.9999 4.51996 9.99988 4.51996 7.99988C4.51996 6.49988 6.51996 5.49988 7.51996 7.49988Z" stroke="#000001" stroke-linecap="round" stroke-linejoin="round"/>
</g>
<defs>
<clipPath id="clip0_1545_8217">
<rect width="14" height="14" fill="white" transform="translate(0.519958)"/>
</clipPath>
</defs>
</svg>
