<svg width="432" height="277" viewBox="0 0 432 277" fill="none" xmlns="http://www.w3.org/2000/svg">
<rect width="432" height="277" fill="#F5F5F5"/>
<rect x="30" y="30" width="372" height="76" rx="5" fill="#F1FEF9"/>
<path d="M64.13 56.68H71.24V59.74H64.13V56.68ZM64.13 62.29H71.24V65.38H64.13V62.29ZM58.91 54.61C60.31 54.61 61.56 54.89 62.66 55.45C63.76 56.01 64.63 56.77 65.27 57.73C65.91 58.69 66.23 59.81 66.23 61.09C66.23 62.31 65.91 63.41 65.27 64.39C64.63 65.35 63.76 66.11 62.66 66.67C61.56 67.21 60.31 67.48 58.91 67.48C57.51 67.48 56.25 67.21 55.13 66.67C54.03 66.11 53.16 65.35 52.52 64.39C51.88 63.41 51.56 62.31 51.56 61.09C51.56 59.81 51.88 58.69 52.52 57.73C53.16 56.77 54.03 56.01 55.13 55.45C56.25 54.89 57.51 54.61 58.91 54.61ZM58.91 57.88C58.23 57.88 57.61 58.01 57.05 58.27C56.51 58.51 56.09 58.87 55.79 59.35C55.49 59.83 55.34 60.4 55.34 61.06C55.34 61.72 55.49 62.29 55.79 62.77C56.09 63.25 56.51 63.62 57.05 63.88C57.59 64.14 58.2 64.27 58.88 64.27C59.58 64.27 60.19 64.14 60.71 63.88C61.25 63.62 61.67 63.25 61.97 62.77C62.27 62.29 62.42 61.72 62.42 61.06C62.42 60.4 62.27 59.83 61.97 59.35C61.67 58.87 61.25 58.51 60.71 58.27C60.19 58.01 59.59 57.88 58.91 57.88ZM70.46 53.89H74.45V67.78H70.46V53.89ZM56.09 68.92H74.45V76.51H60.08V79.9H56.15V73.63H70.52V72.01H56.09V68.92ZM56.15 78.25H75.26V81.37H56.15V78.25ZM96.6777 53.89H100.668V70.39H96.6777V53.89ZM99.5577 60.43H104.358V63.7H99.5577V60.43ZM82.6077 71.59H100.668V81.37H82.6077V71.59ZM96.7977 74.68H86.5377V78.22H96.7977V74.68ZM79.8177 66.19H82.1577C83.9777 66.19 85.5977 66.17 87.0177 66.13C88.4577 66.09 89.7877 66.01 91.0077 65.89C92.2477 65.77 93.5077 65.59 94.7877 65.35L95.1477 68.53C93.8677 68.77 92.5777 68.96 91.2777 69.1C89.9977 69.22 88.6177 69.3 87.1377 69.34C85.6777 69.38 84.0177 69.4 82.1577 69.4H79.8177V66.19ZM79.7577 55.27H92.4477V63.73H83.7477V67.96H79.8177V60.76H88.5177V58.42H79.7577V55.27ZM125.505 53.89H129.495V67.9H125.505V53.89ZM110.985 69.13H129.495V76.66H114.945V79.45H111.015V73.81H125.535V72.19H110.985V69.13ZM111.015 78.37H130.185V81.49H111.015V78.37ZM112.935 54.52H116.235V56.59C116.235 58.29 115.945 59.91 115.365 61.45C114.785 62.99 113.895 64.33 112.695 65.47C111.515 66.61 110.015 67.46 108.195 68.02L106.275 64.87C107.435 64.51 108.435 64.04 109.275 63.46C110.115 62.88 110.805 62.22 111.345 61.48C111.885 60.74 112.285 59.96 112.545 59.14C112.805 58.3 112.935 57.45 112.935 56.59V54.52ZM113.745 54.52H116.985V56.59C116.985 57.43 117.115 58.25 117.375 59.05C117.635 59.83 118.025 60.57 118.545 61.27C119.065 61.97 119.735 62.59 120.555 63.13C121.375 63.67 122.345 64.1 123.465 64.42L121.545 67.54C120.225 67.14 119.075 66.59 118.095 65.89C117.115 65.17 116.295 64.33 115.635 63.37C114.995 62.39 114.515 61.33 114.195 60.19C113.895 59.05 113.745 57.85 113.745 56.59V54.52ZM160.016 53.83H164.006V81.7H160.016V53.83ZM149.036 55.78C150.456 55.78 151.716 56.19 152.816 57.01C153.916 57.81 154.776 58.96 155.396 60.46C156.036 61.94 156.356 63.69 156.356 65.71C156.356 67.75 156.036 69.52 155.396 71.02C154.776 72.5 153.916 73.65 152.816 74.47C151.716 75.27 150.456 75.67 149.036 75.67C147.636 75.67 146.386 75.27 145.286 74.47C144.186 73.65 143.316 72.5 142.676 71.02C142.056 69.52 141.746 67.75 141.746 65.71C141.746 63.69 142.056 61.94 142.676 60.46C143.316 58.96 144.186 57.81 145.286 57.01C146.386 56.19 147.636 55.78 149.036 55.78ZM149.036 59.41C148.356 59.41 147.756 59.65 147.236 60.13C146.716 60.61 146.306 61.32 146.006 62.26C145.726 63.18 145.586 64.33 145.586 65.71C145.586 67.07 145.726 68.23 146.006 69.19C146.306 70.13 146.716 70.84 147.236 71.32C147.756 71.8 148.356 72.04 149.036 72.04C149.736 72.04 150.346 71.8 150.866 71.32C151.386 70.84 151.786 70.13 152.066 69.19C152.366 68.23 152.516 67.07 152.516 65.71C152.516 64.33 152.366 63.18 152.066 62.26C151.786 61.32 151.386 60.61 150.866 60.13C150.346 59.65 149.736 59.41 149.036 59.41ZM174.204 63.16H178.164V68.26H174.204V63.16ZM183.954 63.16H187.944V68.26H183.954V63.16ZM168.534 67.06H193.674V70.18H168.534V67.06ZM181.044 71.59C184.044 71.59 186.404 72.03 188.124 72.91C189.844 73.77 190.704 75.01 190.704 76.63C190.704 78.23 189.844 79.47 188.124 80.35C186.404 81.23 184.044 81.67 181.044 81.67C178.044 81.67 175.684 81.23 173.964 80.35C172.264 79.47 171.414 78.23 171.414 76.63C171.414 75.01 172.264 73.77 173.964 72.91C175.684 72.03 178.044 71.59 181.044 71.59ZM181.044 74.59C179.804 74.59 178.764 74.67 177.924 74.83C177.104 74.97 176.484 75.19 176.064 75.49C175.644 75.79 175.434 76.17 175.434 76.63C175.434 77.09 175.644 77.48 176.064 77.8C176.484 78.1 177.104 78.32 177.924 78.46C178.764 78.6 179.804 78.67 181.044 78.67C182.284 78.67 183.314 78.6 184.134 78.46C184.974 78.32 185.604 78.1 186.024 77.8C186.444 77.48 186.654 77.09 186.654 76.63C186.654 76.17 186.444 75.79 186.024 75.49C185.604 75.19 184.974 74.97 184.134 74.83C183.314 74.67 182.284 74.59 181.044 74.59ZM181.104 54.28C183.164 54.28 184.944 54.5 186.444 54.94C187.964 55.36 189.134 55.97 189.954 56.77C190.774 57.57 191.184 58.52 191.184 59.62C191.184 60.72 190.774 61.67 189.954 62.47C189.134 63.25 187.964 63.86 186.444 64.3C184.944 64.72 183.164 64.93 181.104 64.93C179.084 64.93 177.314 64.72 175.794 64.3C174.274 63.86 173.104 63.25 172.284 62.47C171.464 61.67 171.054 60.72 171.054 59.62C171.054 58.52 171.464 57.57 172.284 56.77C173.104 55.97 174.274 55.36 175.794 54.94C177.314 54.5 179.084 54.28 181.104 54.28ZM181.104 57.31C179.864 57.31 178.794 57.4 177.894 57.58C176.994 57.74 176.314 57.99 175.854 58.33C175.414 58.67 175.194 59.1 175.194 59.62C175.194 60.12 175.414 60.54 175.854 60.88C176.314 61.22 176.994 61.48 177.894 61.66C178.794 61.82 179.864 61.9 181.104 61.9C182.384 61.9 183.464 61.82 184.344 61.66C185.224 61.48 185.894 61.22 186.354 60.88C186.814 60.54 187.044 60.12 187.044 59.62C187.044 59.1 186.814 58.67 186.354 58.33C185.894 57.99 185.224 57.74 184.344 57.58C183.464 57.4 182.384 57.31 181.104 57.31ZM209.855 56.02H213.125V60.04C213.125 61.84 212.965 63.57 212.645 65.23C212.325 66.87 211.835 68.41 211.175 69.85C210.535 71.27 209.705 72.53 208.685 73.63C207.685 74.71 206.495 75.57 205.115 76.21L202.745 72.91C203.965 72.37 205.015 71.66 205.895 70.78C206.795 69.88 207.535 68.86 208.115 67.72C208.695 66.56 209.125 65.33 209.405 64.03C209.705 62.73 209.855 61.4 209.855 60.04V56.02ZM210.635 56.02H213.875V60.04C213.875 61.34 214.015 62.61 214.295 63.85C214.575 65.09 214.995 66.26 215.555 67.36C216.135 68.46 216.855 69.44 217.715 70.3C218.595 71.14 219.625 71.81 220.805 72.31L218.495 75.55C217.155 74.93 215.985 74.1 214.985 73.06C214.005 72.02 213.195 70.82 212.555 69.46C211.915 68.08 211.435 66.6 211.115 65.02C210.795 63.42 210.635 61.76 210.635 60.04V56.02ZM222.155 53.83H226.145V81.7H222.155V53.83ZM248.523 53.89H252.543V73.75H248.523V53.89ZM251.433 61.63H256.233V64.9H251.433V61.63ZM240.813 55.96H245.043C245.043 58.48 244.543 60.73 243.543 62.71C242.543 64.69 241.083 66.38 239.163 67.78C237.263 69.18 234.923 70.28 232.143 71.08L230.493 67.93C232.753 67.29 234.643 66.47 236.163 65.47C237.703 64.47 238.863 63.33 239.643 62.05C240.423 60.77 240.813 59.39 240.813 57.91V55.96ZM231.693 55.96H242.943V59.14H231.693V55.96ZM234.603 77.98H253.503V81.19H234.603V77.98ZM234.603 71.74H238.593V79.42H234.603V71.74ZM278.864 58.51H285.944V61.69H278.864V58.51ZM278.864 64.48H286.034V67.66H278.864V64.48ZM284.474 53.89H288.494V74.38H284.474V53.89ZM270.104 77.98H289.094V81.19H270.104V77.98ZM270.104 72.37H274.094V79.81H270.104V72.37ZM266.384 55.72H270.344V59.92H275.624V55.72H279.554V70.06H266.384V55.72ZM270.344 62.98V66.88H275.624V62.98H270.344ZM306.221 58.27H312.731V61.42H306.221V58.27ZM305.981 64H312.521V67.21H305.981V64ZM312.071 53.86H316.091V69.85H312.071V53.86ZM303.041 55.75H307.271C307.271 58.27 306.801 60.5 305.861 62.44C304.921 64.36 303.511 65.99 301.631 67.33C299.751 68.65 297.401 69.7 294.581 70.48L293.051 67.36C295.411 66.74 297.321 65.96 298.781 65.02C300.241 64.06 301.311 62.96 301.991 61.72C302.691 60.48 303.041 59.14 303.041 57.7V55.75ZM294.551 55.75H305.831V58.93H294.551V55.75ZM306.881 70.21C308.761 70.21 310.401 70.44 311.801 70.9C313.221 71.36 314.311 72.01 315.071 72.85C315.851 73.69 316.241 74.69 316.241 75.85C316.241 77.01 315.851 78.01 315.071 78.85C314.311 79.69 313.221 80.34 311.801 80.8C310.401 81.28 308.761 81.52 306.881 81.52C305.001 81.52 303.351 81.28 301.931 80.8C300.531 80.34 299.441 79.69 298.661 78.85C297.881 78.01 297.491 77.01 297.491 75.85C297.491 74.69 297.881 73.69 298.661 72.85C299.441 72.01 300.531 71.36 301.931 70.9C303.351 70.44 305.001 70.21 306.881 70.21ZM306.881 73.27C305.741 73.27 304.761 73.37 303.941 73.57C303.141 73.77 302.521 74.06 302.081 74.44C301.641 74.82 301.421 75.29 301.421 75.85C301.421 76.41 301.641 76.89 302.081 77.29C302.521 77.67 303.141 77.96 303.941 78.16C304.761 78.34 305.741 78.43 306.881 78.43C308.021 78.43 308.991 78.34 309.791 78.16C310.591 77.96 311.211 77.67 311.651 77.29C312.091 76.89 312.311 76.41 312.311 75.85C312.311 75.29 312.091 74.82 311.651 74.44C311.211 74.06 310.591 73.77 309.791 73.57C308.991 73.37 308.021 73.27 306.881 73.27ZM345.232 53.89H349.222V74.08H345.232V53.89ZM348.112 61.81H352.912V65.11H348.112V61.81ZM331.312 77.98H350.212V81.19H331.312V77.98ZM331.312 71.98H335.332V79.42H331.312V71.98ZM335.092 55.66C336.512 55.66 337.792 55.96 338.932 56.56C340.072 57.16 340.972 57.99 341.632 59.05C342.312 60.11 342.652 61.33 342.652 62.71C342.652 64.07 342.312 65.29 341.632 66.37C340.972 67.43 340.072 68.27 338.932 68.89C337.792 69.49 336.512 69.79 335.092 69.79C333.672 69.79 332.392 69.49 331.252 68.89C330.112 68.27 329.212 67.43 328.552 66.37C327.892 65.29 327.562 64.07 327.562 62.71C327.562 61.33 327.892 60.11 328.552 59.05C329.212 57.99 330.112 57.16 331.252 56.56C332.392 55.96 333.672 55.66 335.092 55.66ZM335.092 59.11C334.412 59.11 333.792 59.26 333.232 59.56C332.692 59.84 332.262 60.25 331.942 60.79C331.622 61.31 331.462 61.95 331.462 62.71C331.462 63.47 331.622 64.12 331.942 64.66C332.262 65.18 332.692 65.59 333.232 65.89C333.792 66.17 334.412 66.31 335.092 66.31C335.792 66.31 336.412 66.17 336.952 65.89C337.512 65.59 337.952 65.18 338.272 64.66C338.592 64.12 338.752 63.47 338.752 62.71C338.752 61.95 338.592 61.31 338.272 60.79C337.952 60.25 337.512 59.84 336.952 59.56C336.412 59.26 335.792 59.11 335.092 59.11ZM374.96 53.86H378.74V81.64H374.96V53.86ZM371.33 64.57H375.95V67.78H371.33V64.57ZM368.75 54.34H372.47V80.35H368.75V54.34ZM356.06 56.95H360.05V73H356.06V56.95ZM356.06 71.47H357.98C359.32 71.47 360.76 71.43 362.3 71.35C363.86 71.25 365.5 71.03 367.22 70.69L367.58 74.11C365.78 74.43 364.08 74.64 362.48 74.74C360.88 74.84 359.38 74.89 357.98 74.89H356.06V71.47Z" fill="#306A4E"/>
<path d="M171.295 157.17H179.095V159.21H171.295V157.17ZM171.295 163.02H179.155V165.06H171.295V163.02ZM178.165 152.22H180.655V172.29H178.165V152.22ZM163.225 176.7H181.285V178.74H163.225V176.7ZM163.225 170.34H165.715V177.72H163.225V170.34ZM159.655 154.02H162.145V158.79H169.465V154.02H171.925V167.67H159.655V154.02ZM162.145 160.74V165.66H169.465V160.74H162.145ZM198.923 157.2H206.183V159.21H198.923V157.2ZM198.683 162.84H206.003V164.88H198.683V162.84ZM205.763 152.22H208.253V168.45H205.763V152.22ZM197.273 154.23H199.913C199.913 156.55 199.403 158.64 198.383 160.5C197.383 162.36 195.933 163.96 194.033 165.3C192.153 166.62 189.913 167.67 187.313 168.45L186.293 166.47C188.593 165.79 190.563 164.91 192.203 163.83C193.843 162.73 195.093 161.47 195.953 160.05C196.833 158.61 197.273 157.03 197.273 155.31V154.23ZM187.673 154.23H198.953V156.27H187.673V154.23ZM199.433 168.75C201.273 168.75 202.853 168.96 204.173 169.38C205.513 169.8 206.553 170.4 207.293 171.18C208.033 171.96 208.403 172.89 208.403 173.97C208.403 175.07 208.033 176.01 207.293 176.79C206.553 177.55 205.513 178.14 204.173 178.56C202.853 179 201.273 179.22 199.433 179.22C197.613 179.22 196.023 179 194.663 178.56C193.323 178.14 192.283 177.55 191.543 176.79C190.803 176.01 190.433 175.07 190.433 173.97C190.433 172.89 190.803 171.96 191.543 171.18C192.283 170.4 193.323 169.8 194.663 169.38C196.023 168.96 197.613 168.75 199.433 168.75ZM199.433 170.73C198.113 170.73 196.963 170.86 195.983 171.12C195.003 171.38 194.243 171.75 193.703 172.23C193.163 172.71 192.893 173.29 192.893 173.97C192.893 174.65 193.163 175.23 193.703 175.71C194.243 176.19 195.003 176.56 195.983 176.82C196.963 177.08 198.113 177.21 199.433 177.21C200.773 177.21 201.923 177.08 202.883 176.82C203.843 176.56 204.593 176.19 205.133 175.71C205.673 175.23 205.943 174.65 205.943 173.97C205.943 173.29 205.673 172.71 205.133 172.23C204.593 171.75 203.843 171.38 202.883 171.12C201.923 170.86 200.773 170.73 199.433 170.73ZM228.61 154.53H230.68V159.39C230.68 160.95 230.48 162.47 230.08 163.95C229.7 165.41 229.15 166.78 228.43 168.06C227.73 169.32 226.9 170.44 225.94 171.42C225 172.38 223.97 173.14 222.85 173.7L221.32 171.63C222.34 171.17 223.29 170.51 224.17 169.65C225.05 168.79 225.82 167.82 226.48 166.74C227.14 165.64 227.66 164.46 228.04 163.2C228.42 161.94 228.61 160.67 228.61 159.39V154.53ZM229.03 154.53H231.1V159.39C231.1 160.63 231.28 161.85 231.64 163.05C232.02 164.25 232.54 165.39 233.2 166.47C233.88 167.53 234.65 168.47 235.51 169.29C236.39 170.09 237.33 170.72 238.33 171.18L236.83 173.16C235.73 172.64 234.71 171.91 233.77 170.97C232.83 170.03 232 168.95 231.28 167.73C230.58 166.51 230.03 165.19 229.63 163.77C229.23 162.35 229.03 160.89 229.03 159.39V154.53ZM241.18 152.19H243.67V179.37H241.18V152.19ZM267.607 152.19H270.127V172.02H267.607V152.19ZM269.347 160.41H274.117V162.51H269.347V160.41ZM260.197 154.29H262.837C262.837 156.63 262.317 158.75 261.277 160.65C260.257 162.55 258.797 164.2 256.897 165.6C254.997 167 252.747 168.11 250.147 168.93L249.097 166.92C251.377 166.2 253.347 165.27 255.007 164.13C256.667 162.99 257.947 161.68 258.847 160.2C259.747 158.72 260.197 157.12 260.197 155.4V154.29ZM250.207 154.29H261.487V156.36H250.207V154.29ZM253.207 176.7H271.297V178.74H253.207V176.7ZM253.207 170.01H255.697V177.51H253.207V170.01Z" fill="#23236C"/>
<path d="M140.556 213.197C141.774 213.206 142.959 213.421 144.111 213.844C145.271 214.258 146.315 214.938 147.243 215.882C148.171 216.818 148.908 218.074 149.455 219.648C150.002 221.222 150.276 223.17 150.276 225.49C150.284 227.677 150.052 229.633 149.58 231.356C149.116 233.071 148.449 234.521 147.578 235.706C146.708 236.891 145.66 237.794 144.434 238.416C143.208 239.037 141.828 239.348 140.295 239.348C138.688 239.348 137.262 239.033 136.02 238.403C134.785 237.774 133.786 236.912 133.024 235.818C132.262 234.724 131.794 233.473 131.62 232.065H136.156C136.388 233.076 136.861 233.879 137.573 234.476C138.294 235.064 139.201 235.358 140.295 235.358C142.06 235.358 143.419 234.592 144.372 233.059C145.325 231.526 145.801 229.397 145.801 226.67H145.627C145.221 227.4 144.695 228.029 144.049 228.56C143.402 229.082 142.669 229.484 141.849 229.765C141.037 230.047 140.175 230.188 139.263 230.188C137.772 230.188 136.43 229.832 135.237 229.119C134.052 228.406 133.111 227.429 132.415 226.186C131.727 224.943 131.379 223.522 131.371 221.923C131.371 220.265 131.752 218.778 132.515 217.461C133.285 216.135 134.358 215.091 135.734 214.328C137.109 213.558 138.717 213.181 140.556 213.197ZM140.569 216.926C139.674 216.926 138.866 217.146 138.145 217.585C137.432 218.016 136.869 218.604 136.455 219.35C136.049 220.087 135.846 220.912 135.846 221.823C135.854 222.726 136.057 223.547 136.455 224.284C136.861 225.022 137.412 225.606 138.108 226.037C138.812 226.467 139.616 226.683 140.519 226.683C141.19 226.683 141.816 226.554 142.396 226.298C142.976 226.041 143.481 225.684 143.912 225.229C144.351 224.765 144.691 224.239 144.931 223.65C145.18 223.062 145.3 222.44 145.292 221.786C145.292 220.916 145.084 220.112 144.67 219.375C144.264 218.637 143.705 218.045 142.992 217.597C142.288 217.15 141.48 216.926 140.569 216.926ZM161.462 212.19H165.277V216.88C165.277 218.98 165.091 220.998 164.717 222.935C164.344 224.848 163.772 226.645 163.002 228.325C162.256 229.982 161.287 231.452 160.097 232.735C158.931 233.995 157.542 234.998 155.932 235.745L153.167 231.895C154.591 231.265 155.816 230.437 156.842 229.41C157.892 228.36 158.756 227.17 159.432 225.84C160.109 224.487 160.611 223.052 160.937 221.535C161.287 220.018 161.462 218.467 161.462 216.88V212.19ZM162.372 212.19H166.152V216.88C166.152 218.397 166.316 219.878 166.642 221.325C166.969 222.772 167.459 224.137 168.112 225.42C168.789 226.703 169.629 227.847 170.632 228.85C171.659 229.83 172.861 230.612 174.237 231.195L171.542 234.975C169.979 234.252 168.614 233.283 167.447 232.07C166.304 230.857 165.359 229.457 164.612 227.87C163.866 226.26 163.306 224.533 162.932 222.69C162.559 220.823 162.372 218.887 162.372 216.88V212.19ZM175.812 209.635H180.467V242.15H175.812V209.635ZM195.778 229.368C195.737 227.859 195.935 226.604 196.375 225.602C196.822 224.599 197.444 223.849 198.239 223.352C199.043 222.846 199.962 222.594 200.998 222.594C201.802 222.594 202.556 222.764 203.26 223.103C203.965 223.435 204.772 224.002 205.684 224.806C206.206 225.254 206.637 225.589 206.977 225.813C207.316 226.037 207.706 226.148 208.145 226.148C208.775 226.148 209.284 225.908 209.674 225.428C210.071 224.939 210.258 224.201 210.233 223.215H213.837C213.879 224.715 213.672 225.966 213.216 226.969C212.768 227.971 212.143 228.725 211.339 229.231C210.535 229.728 209.628 229.977 208.617 229.977C207.789 229.977 207.018 229.803 206.305 229.455C205.593 229.107 204.793 228.547 203.907 227.777C203.36 227.296 202.921 226.952 202.589 226.745C202.266 226.538 201.889 226.434 201.458 226.434C200.853 226.434 200.348 226.662 199.942 227.118C199.544 227.565 199.353 228.315 199.37 229.368H195.778ZM227.525 239V235.669L236.362 227.006C237.207 226.153 237.911 225.394 238.475 224.732C239.038 224.069 239.461 223.426 239.742 222.805C240.024 222.184 240.165 221.521 240.165 220.816C240.165 220.013 239.983 219.325 239.618 218.753C239.254 218.173 238.752 217.726 238.114 217.411C237.476 217.096 236.751 216.939 235.939 216.939C235.102 216.939 234.369 217.113 233.739 217.461C233.11 217.8 232.621 218.285 232.273 218.915C231.933 219.545 231.763 220.294 231.763 221.164H227.376C227.376 219.549 227.744 218.144 228.482 216.951C229.219 215.758 230.234 214.834 231.527 214.179C232.828 213.525 234.319 213.197 236.001 213.197C237.708 213.197 239.208 213.516 240.501 214.154C241.793 214.792 242.796 215.667 243.508 216.777C244.229 217.887 244.59 219.155 244.59 220.58C244.59 221.533 244.407 222.469 244.043 223.389C243.678 224.309 243.036 225.328 242.116 226.447C241.205 227.565 239.925 228.92 238.276 230.511L233.888 234.973V235.147H244.975V239H227.525ZM258.672 239.485C256.625 239.485 254.869 238.967 253.402 237.931C251.944 236.887 250.821 235.383 250.034 233.419C249.255 231.447 248.865 229.073 248.865 226.298C248.874 223.522 249.267 221.16 250.046 219.213C250.833 217.258 251.956 215.766 253.414 214.739C254.881 213.711 256.633 213.197 258.672 213.197C260.71 213.197 262.463 213.711 263.929 214.739C265.396 215.766 266.519 217.258 267.297 219.213C268.085 221.169 268.478 223.53 268.478 226.298C268.478 229.082 268.085 231.46 267.297 233.432C266.519 235.396 265.396 236.895 263.929 237.931C262.471 238.967 260.718 239.485 258.672 239.485ZM258.672 235.594C260.263 235.594 261.518 234.811 262.438 233.245C263.366 231.671 263.83 229.355 263.83 226.298C263.83 224.276 263.619 222.577 263.196 221.202C262.773 219.826 262.177 218.79 261.406 218.094C260.636 217.39 259.724 217.038 258.672 217.038C257.089 217.038 255.838 217.825 254.918 219.4C253.998 220.966 253.534 223.265 253.526 226.298C253.518 228.328 253.721 230.035 254.135 231.418C254.558 232.802 255.154 233.846 255.925 234.55C256.696 235.246 257.611 235.594 258.672 235.594ZM279.656 212.19H283.471V216.88C283.471 218.98 283.284 220.998 282.911 222.935C282.537 224.848 281.966 226.645 281.196 228.325C280.449 229.982 279.481 231.452 278.291 232.735C277.124 233.995 275.736 234.998 274.126 235.745L271.361 231.895C272.784 231.265 274.009 230.437 275.036 229.41C276.086 228.36 276.949 227.17 277.626 225.84C278.302 224.487 278.804 223.052 279.131 221.535C279.481 220.018 279.656 218.467 279.656 216.88V212.19ZM280.566 212.19H284.346V216.88C284.346 218.397 284.509 219.878 284.836 221.325C285.162 222.772 285.652 224.137 286.306 225.42C286.982 226.703 287.822 227.847 288.826 228.85C289.852 229.83 291.054 230.612 292.431 231.195L289.736 234.975C288.172 234.252 286.807 233.283 285.641 232.07C284.497 230.857 283.552 229.457 282.806 227.87C282.059 226.26 281.499 224.533 281.126 222.69C280.752 220.823 280.566 218.887 280.566 216.88V212.19ZM294.006 209.635H298.661V242.15H294.006V209.635Z" fill="#FF5B5B"/>
</svg>
