<svg width="432" height="319" viewBox="0 0 432 319" fill="none" xmlns="http://www.w3.org/2000/svg">
<rect width="432" height="319" fill="#F5F5F5"/>
<rect x="30" y="30" width="372" height="76" rx="5" fill="#F1FEF9"/>
<path d="M57.64 73.24H76.84V81.37H57.64V73.24ZM72.94 76.18H61.54V78.4H72.94V76.18ZM55.9 55.81H78.55V58.84H55.9V55.81ZM67.27 59.5C70.27 59.5 72.57 59.84 74.17 60.52C75.77 61.18 76.57 62.16 76.57 63.46C76.57 64.78 75.77 65.78 74.17 66.46C72.57 67.12 70.27 67.45 67.27 67.45C64.31 67.45 62.02 67.12 60.4 66.46C58.78 65.78 57.97 64.78 57.97 63.46C57.97 62.16 58.78 61.18 60.4 60.52C62.02 59.84 64.31 59.5 67.27 59.5ZM67.27 62.2C65.57 62.2 64.31 62.3 63.49 62.5C62.67 62.7 62.26 63.02 62.26 63.46C62.26 63.92 62.67 64.25 63.49 64.45C64.31 64.65 65.57 64.75 67.27 64.75C69.01 64.75 70.28 64.65 71.08 64.45C71.9 64.25 72.31 63.92 72.31 63.46C72.31 63.02 71.9 62.7 71.08 62.5C70.28 62.3 69.01 62.2 67.27 62.2ZM65.29 53.68H69.25V57.97H65.29V53.68ZM54.7 68.74H79.84V71.83H54.7V68.74ZM65.29 66.49H69.25V70.36H65.29V66.49ZM102.638 53.89H106.418V81.67H102.638V53.89ZM94.4777 64H98.1977V67.48H94.4777V64ZM97.1177 54.4H100.838V80.35H97.1177V54.4ZM82.5077 57.01H95.1677V60.19H82.5077V57.01ZM82.4777 75.37L82.0577 72.1C82.9177 72.1 83.9077 72.1 85.0277 72.1C86.1477 72.08 87.3177 72.05 88.5377 72.01C89.7577 71.95 90.9677 71.88 92.1677 71.8C93.3877 71.7 94.5277 71.58 95.5877 71.44L95.8277 74.32C94.4077 74.64 92.8777 74.88 91.2377 75.04C89.5977 75.18 88.0077 75.27 86.4677 75.31C84.9477 75.35 83.6177 75.37 82.4777 75.37ZM84.2177 59.02H87.8177V72.97H84.2177V59.02ZM89.8277 59.02H93.3977V72.97H89.8277V59.02ZM128.975 53.83H132.965V81.7H128.975V53.83ZM117.995 55.78C119.415 55.78 120.675 56.19 121.775 57.01C122.875 57.81 123.735 58.96 124.355 60.46C124.995 61.94 125.315 63.69 125.315 65.71C125.315 67.75 124.995 69.52 124.355 71.02C123.735 72.5 122.875 73.65 121.775 74.47C120.675 75.27 119.415 75.67 117.995 75.67C116.595 75.67 115.345 75.27 114.245 74.47C113.145 73.65 112.275 72.5 111.635 71.02C111.015 69.52 110.705 67.75 110.705 65.71C110.705 63.69 111.015 61.94 111.635 60.46C112.275 58.96 113.145 57.81 114.245 57.01C115.345 56.19 116.595 55.78 117.995 55.78ZM117.995 59.41C117.315 59.41 116.715 59.65 116.195 60.13C115.675 60.61 115.265 61.32 114.965 62.26C114.685 63.18 114.545 64.33 114.545 65.71C114.545 67.07 114.685 68.23 114.965 69.19C115.265 70.13 115.675 70.84 116.195 71.32C116.715 71.8 117.315 72.04 117.995 72.04C118.695 72.04 119.305 71.8 119.825 71.32C120.345 70.84 120.745 70.13 121.025 69.19C121.325 68.23 121.475 67.07 121.475 65.71C121.475 64.33 121.325 63.18 121.025 62.26C120.745 61.32 120.345 60.61 119.825 60.13C119.305 59.65 118.695 59.41 117.995 59.41ZM144.213 58.27H147.393V61.39C147.393 62.99 147.223 64.56 146.883 66.1C146.563 67.64 146.073 69.09 145.413 70.45C144.773 71.79 143.963 72.98 142.983 74.02C142.003 75.04 140.863 75.85 139.563 76.45L137.283 73.3C138.443 72.76 139.453 72.06 140.313 71.2C141.193 70.34 141.913 69.38 142.473 68.32C143.053 67.24 143.483 66.11 143.763 64.93C144.063 63.73 144.213 62.55 144.213 61.39V58.27ZM145.083 58.27H148.233V61.39C148.233 62.49 148.373 63.61 148.653 64.75C148.953 65.87 149.383 66.94 149.943 67.96C150.503 68.96 151.213 69.86 152.073 70.66C152.933 71.46 153.953 72.1 155.133 72.58L152.943 75.76C151.623 75.18 150.473 74.4 149.493 73.42C148.513 72.44 147.693 71.31 147.033 70.03C146.373 68.75 145.883 67.38 145.563 65.92C145.243 64.44 145.083 62.93 145.083 61.39V58.27ZM138.393 56.53H153.993V59.83H138.393V56.53ZM156.573 53.89H160.563V81.67H156.573V53.89ZM186.074 62.56H193.394V65.77H186.074V62.56ZM178.514 55.99H181.724V60.04C181.724 61.78 181.574 63.47 181.274 65.11C180.974 66.75 180.514 68.28 179.894 69.7C179.274 71.12 178.484 72.37 177.524 73.45C176.584 74.53 175.464 75.4 174.164 76.06L171.674 72.88C172.854 72.32 173.864 71.59 174.704 70.69C175.564 69.79 176.274 68.77 176.834 67.63C177.414 66.47 177.834 65.25 178.094 63.97C178.374 62.67 178.514 61.36 178.514 60.04V55.99ZM179.324 55.99H182.504V60.04C182.504 61.34 182.634 62.63 182.894 63.91C183.154 65.17 183.544 66.35 184.064 67.45C184.604 68.55 185.294 69.53 186.134 70.39C186.974 71.23 187.974 71.91 189.134 72.43L186.734 75.61C185.434 74.97 184.314 74.13 183.374 73.09C182.434 72.03 181.664 70.82 181.064 69.46C180.484 68.1 180.044 66.62 179.744 65.02C179.464 63.42 179.324 61.76 179.324 60.04V55.99ZM191.384 53.83H195.374V81.7H191.384V53.83ZM218.712 53.83H222.702V81.7H218.712V53.83ZM201.012 56.05H204.972V62.83H210.732V56.05H214.692V75.22H201.012V56.05ZM204.972 65.92V72.04H210.732V65.92H204.972ZM237.579 55.48H241.029V57.49C241.029 58.69 240.859 59.86 240.519 61C240.199 62.12 239.719 63.18 239.079 64.18C238.439 65.18 237.649 66.09 236.709 66.91C235.789 67.71 234.729 68.4 233.529 68.98C232.329 69.56 231.009 69.99 229.569 70.27L227.859 66.94C229.099 66.72 230.229 66.39 231.249 65.95C232.289 65.49 233.199 64.94 233.979 64.3C234.759 63.66 235.419 62.97 235.959 62.23C236.499 61.47 236.899 60.69 237.159 59.89C237.439 59.07 237.579 58.27 237.579 57.49V55.48ZM238.359 55.48H241.839V57.49C241.839 58.29 241.969 59.1 242.229 59.92C242.509 60.74 242.909 61.53 243.429 62.29C243.969 63.03 244.629 63.71 245.409 64.33C246.189 64.95 247.089 65.49 248.109 65.95C249.129 66.39 250.279 66.72 251.559 66.94L249.849 70.27C248.409 69.99 247.089 69.56 245.889 68.98C244.689 68.4 243.619 67.71 242.679 66.91C241.759 66.11 240.969 65.21 240.309 64.21C239.669 63.21 239.179 62.14 238.839 61C238.519 59.86 238.359 58.69 238.359 57.49V55.48ZM227.259 75.01H252.429V78.28H227.259V75.01ZM269.6 54.67C271.04 54.67 272.31 54.95 273.41 55.51C274.53 56.05 275.41 56.8 276.05 57.76C276.71 58.7 277.04 59.79 277.04 61.03C277.04 62.27 276.71 63.37 276.05 64.33C275.41 65.27 274.53 66.01 273.41 66.55C272.31 67.09 271.04 67.36 269.6 67.36C268.2 67.36 266.94 67.09 265.82 66.55C264.7 66.01 263.81 65.27 263.15 64.33C262.51 63.37 262.19 62.27 262.19 61.03C262.19 59.79 262.51 58.69 263.15 57.73C263.81 56.77 264.7 56.02 265.82 55.48C266.94 54.94 268.2 54.67 269.6 54.67ZM269.63 57.91C268.95 57.91 268.34 58.04 267.8 58.3C267.26 58.54 266.83 58.89 266.51 59.35C266.21 59.81 266.06 60.37 266.06 61.03C266.06 61.69 266.21 62.26 266.51 62.74C266.83 63.2 267.25 63.55 267.77 63.79C268.31 64.03 268.93 64.15 269.63 64.15C270.31 64.15 270.91 64.03 271.43 63.79C271.97 63.55 272.39 63.2 272.69 62.74C273.01 62.26 273.17 61.69 273.17 61.03C273.17 60.37 273.01 59.81 272.69 59.35C272.39 58.89 271.97 58.54 271.43 58.3C270.89 58.04 270.29 57.91 269.63 57.91ZM280.88 53.89H284.87V67.78H280.88V53.89ZM266.36 68.92H284.87V76.51H270.32V79.9H266.39V73.63H280.91V71.98H266.36V68.92ZM266.39 78.25H285.56V81.37H266.39V78.25ZM296.148 56.02H299.418V60.04C299.418 61.84 299.258 63.57 298.938 65.23C298.618 66.87 298.128 68.41 297.468 69.85C296.828 71.27 295.998 72.53 294.978 73.63C293.978 74.71 292.788 75.57 291.408 76.21L289.038 72.91C290.258 72.37 291.308 71.66 292.188 70.78C293.088 69.88 293.828 68.86 294.408 67.72C294.988 66.56 295.418 65.33 295.698 64.03C295.998 62.73 296.148 61.4 296.148 60.04V56.02ZM296.928 56.02H300.168V60.04C300.168 61.34 300.308 62.61 300.588 63.85C300.868 65.09 301.288 66.26 301.848 67.36C302.428 68.46 303.148 69.44 304.008 70.3C304.888 71.14 305.918 71.81 307.098 72.31L304.788 75.55C303.448 74.93 302.278 74.1 301.278 73.06C300.298 72.02 299.488 70.82 298.848 69.46C298.208 68.08 297.728 66.6 297.408 65.02C297.088 63.42 296.928 61.76 296.928 60.04V56.02ZM308.448 53.83H312.438V81.7H308.448V53.83ZM334.499 67.84H338.459V72.73H334.499V67.84ZM323.909 66.49H349.049V69.67H323.909V66.49ZM336.419 71.62C339.419 71.62 341.779 72.06 343.499 72.94C345.219 73.8 346.079 75.04 346.079 76.66C346.079 78.24 345.219 79.47 343.499 80.35C341.779 81.23 339.419 81.67 336.419 81.67C333.419 81.67 331.059 81.23 329.339 80.35C327.639 79.47 326.789 78.24 326.789 76.66C326.789 75.04 327.639 73.8 329.339 72.94C331.059 72.06 333.419 71.62 336.419 71.62ZM336.419 74.65C335.179 74.65 334.139 74.72 333.299 74.86C332.479 75 331.859 75.22 331.439 75.52C331.019 75.8 330.809 76.18 330.809 76.66C330.809 77.1 331.019 77.47 331.439 77.77C331.859 78.07 332.479 78.29 333.299 78.43C334.139 78.57 335.179 78.64 336.419 78.64C337.659 78.64 338.689 78.57 339.509 78.43C340.349 78.29 340.979 78.07 341.399 77.77C341.819 77.47 342.029 77.1 342.029 76.66C342.029 76.18 341.819 75.8 341.399 75.52C340.979 75.22 340.349 75 339.509 74.86C338.689 74.72 337.659 74.65 336.419 74.65ZM333.749 56.5H337.289V57.16C337.289 58 337.139 58.8 336.839 59.56C336.539 60.32 336.089 61.03 335.489 61.69C334.909 62.33 334.179 62.91 333.299 63.43C332.419 63.95 331.399 64.38 330.239 64.72C329.079 65.06 327.789 65.3 326.369 65.44L324.989 62.29C326.209 62.19 327.289 62.02 328.229 61.78C329.189 61.54 330.009 61.25 330.689 60.91C331.389 60.55 331.959 60.17 332.399 59.77C332.859 59.35 333.199 58.92 333.419 58.48C333.639 58.04 333.749 57.6 333.749 57.16V56.5ZM335.699 56.5H339.209V57.16C339.209 57.6 339.319 58.05 339.539 58.51C339.759 58.95 340.089 59.37 340.529 59.77C340.989 60.17 341.559 60.55 342.239 60.91C342.939 61.25 343.759 61.54 344.699 61.78C345.659 62.02 346.749 62.19 347.969 62.29L346.589 65.44C345.169 65.3 343.879 65.06 342.719 64.72C341.559 64.38 340.539 63.96 339.659 63.46C338.799 62.94 338.069 62.36 337.469 61.72C336.889 61.06 336.449 60.35 336.149 59.59C335.849 58.81 335.699 58 335.699 57.16V56.5ZM326.219 55.03H346.799V58.18H326.219V55.03ZM358.227 58.27H361.407V61.39C361.407 62.99 361.237 64.56 360.897 66.1C360.577 67.64 360.087 69.09 359.427 70.45C358.787 71.79 357.977 72.98 356.997 74.02C356.017 75.04 354.877 75.85 353.577 76.45L351.297 73.3C352.457 72.76 353.467 72.06 354.327 71.2C355.207 70.34 355.927 69.38 356.487 68.32C357.067 67.24 357.497 66.11 357.777 64.93C358.077 63.73 358.227 62.55 358.227 61.39V58.27ZM359.097 58.27H362.247V61.39C362.247 62.49 362.387 63.61 362.667 64.75C362.967 65.87 363.397 66.94 363.957 67.96C364.517 68.96 365.227 69.86 366.087 70.66C366.947 71.46 367.967 72.1 369.147 72.58L366.957 75.76C365.637 75.18 364.487 74.4 363.507 73.42C362.527 72.44 361.707 71.31 361.047 70.03C360.387 68.75 359.897 67.38 359.577 65.92C359.257 64.44 359.097 62.93 359.097 61.39V58.27ZM352.407 56.53H368.007V59.83H352.407V56.53ZM370.587 53.89H374.577V81.67H370.587V53.89Z" fill="#306A4E"/>
<path d="M134.388 153.18C135.748 153.18 136.948 153.44 137.988 153.96C139.048 154.46 139.878 155.16 140.478 156.06C141.078 156.96 141.378 158.01 141.378 159.21C141.378 160.39 141.078 161.44 140.478 162.36C139.878 163.26 139.048 163.96 137.988 164.46C136.948 164.96 135.748 165.21 134.388 165.21C133.048 165.21 131.848 164.96 130.788 164.46C129.728 163.96 128.888 163.26 128.268 162.36C127.668 161.44 127.368 160.39 127.368 159.21C127.368 158.01 127.668 156.96 128.268 156.06C128.888 155.16 129.728 154.46 130.788 153.96C131.848 153.44 133.048 153.18 134.388 153.18ZM134.388 155.25C133.508 155.25 132.718 155.42 132.018 155.76C131.338 156.08 130.798 156.54 130.398 157.14C129.998 157.74 129.798 158.43 129.798 159.21C129.798 159.99 129.998 160.68 130.398 161.28C130.798 161.86 131.338 162.32 132.018 162.66C132.718 163 133.508 163.17 134.388 163.17C135.268 163.17 136.048 163 136.728 162.66C137.428 162.32 137.978 161.86 138.378 161.28C138.778 160.68 138.978 159.99 138.978 159.21C138.978 158.43 138.778 157.74 138.378 157.14C137.978 156.54 137.428 156.08 136.728 155.76C136.048 155.42 135.268 155.25 134.388 155.25ZM146.508 152.19H148.998V166.08H146.508V152.19ZM131.448 167.43H148.998V174H133.938V178.08H131.538V172.14H146.538V169.41H131.448V167.43ZM131.538 176.97H149.928V178.98H131.538V176.97ZM161.505 154.53H163.575V159.39C163.575 160.95 163.375 162.47 162.975 163.95C162.595 165.41 162.045 166.78 161.325 168.06C160.625 169.32 159.795 170.44 158.835 171.42C157.895 172.38 156.865 173.14 155.745 173.7L154.215 171.63C155.235 171.17 156.185 170.51 157.065 169.65C157.945 168.79 158.715 167.82 159.375 166.74C160.035 165.64 160.555 164.46 160.935 163.2C161.315 161.94 161.505 160.67 161.505 159.39V154.53ZM161.925 154.53H163.995V159.39C163.995 160.63 164.175 161.85 164.535 163.05C164.915 164.25 165.435 165.39 166.095 166.47C166.775 167.53 167.545 168.47 168.405 169.29C169.285 170.09 170.225 170.72 171.225 171.18L169.725 173.16C168.625 172.64 167.605 171.91 166.665 170.97C165.725 170.03 164.895 168.95 164.175 167.73C163.475 166.51 162.925 165.19 162.525 163.77C162.125 162.35 161.925 160.89 161.925 159.39V154.53ZM174.075 152.19H176.565V179.37H174.075V152.19ZM200.912 165.75H203.372V170.49H200.912V165.75ZM189.902 164.88H214.412V166.92H189.902V164.88ZM202.142 169.74C205.042 169.74 207.312 170.15 208.952 170.97C210.592 171.79 211.412 172.97 211.412 174.51C211.412 176.03 210.592 177.2 208.952 178.02C207.312 178.86 205.042 179.28 202.142 179.28C199.242 179.28 196.962 178.86 195.302 178.02C193.662 177.2 192.842 176.03 192.842 174.51C192.842 172.97 193.662 171.79 195.302 170.97C196.962 170.15 199.242 169.74 202.142 169.74ZM202.142 171.69C200.722 171.69 199.502 171.8 198.482 172.02C197.482 172.24 196.712 172.56 196.172 172.98C195.632 173.4 195.362 173.91 195.362 174.51C195.362 175.11 195.632 175.62 196.172 176.04C196.712 176.46 197.482 176.78 198.482 177C199.502 177.24 200.722 177.36 202.142 177.36C203.562 177.36 204.772 177.24 205.772 177C206.792 176.78 207.572 176.46 208.112 176.04C208.652 175.62 208.922 175.11 208.922 174.51C208.922 173.91 208.652 173.4 208.112 172.98C207.572 172.56 206.792 172.24 205.772 172.02C204.772 171.8 203.562 171.69 202.142 171.69ZM200.552 154.44H202.742V155.25C202.742 156.13 202.552 156.94 202.172 157.68C201.812 158.42 201.302 159.11 200.642 159.75C199.982 160.37 199.202 160.92 198.302 161.4C197.422 161.88 196.462 162.28 195.422 162.6C194.382 162.9 193.292 163.12 192.152 163.26L191.252 161.28C192.232 161.18 193.172 161.01 194.072 160.77C194.992 160.51 195.842 160.2 196.622 159.84C197.422 159.46 198.112 159.03 198.692 158.55C199.272 158.07 199.722 157.55 200.042 156.99C200.382 156.43 200.552 155.85 200.552 155.25V154.44ZM201.572 154.44H203.762V155.25C203.762 155.87 203.922 156.46 204.242 157.02C204.582 157.56 205.042 158.07 205.622 158.55C206.202 159.01 206.882 159.43 207.662 159.81C208.462 160.17 209.312 160.48 210.212 160.74C211.132 161 212.082 161.18 213.062 161.28L212.162 163.26C211.022 163.12 209.932 162.9 208.892 162.6C207.852 162.28 206.882 161.88 205.982 161.4C205.102 160.92 204.332 160.37 203.672 159.75C203.012 159.13 202.492 158.44 202.112 157.68C201.752 156.92 201.572 156.11 201.572 155.25V154.44ZM192.152 153.45H212.192V155.46H192.152V153.45ZM224.67 156.09H226.71V160.47C226.71 161.91 226.51 163.33 226.11 164.73C225.71 166.11 225.15 167.42 224.43 168.66C223.73 169.88 222.91 170.96 221.97 171.9C221.03 172.84 220.02 173.58 218.94 174.12L217.5 172.14C218.48 171.66 219.4 171.01 220.26 170.19C221.14 169.37 221.91 168.43 222.57 167.37C223.23 166.31 223.74 165.19 224.1 164.01C224.48 162.83 224.67 161.65 224.67 160.47V156.09ZM225.18 156.09H227.19V160.47C227.19 161.61 227.37 162.75 227.73 163.89C228.11 165.01 228.63 166.07 229.29 167.07C229.97 168.05 230.74 168.92 231.6 169.68C232.48 170.44 233.42 171.04 234.42 171.48L233.04 173.46C231.94 172.94 230.91 172.24 229.95 171.36C228.99 170.48 228.15 169.47 227.43 168.33C226.73 167.17 226.18 165.93 225.78 164.61C225.38 163.27 225.18 161.89 225.18 160.47V156.09ZM218.37 154.98H233.52V157.05H218.37V154.98ZM237.21 152.19H239.7V179.34H237.21V152.19ZM272.807 152.19H275.297V179.34H272.807V152.19ZM264.857 155.13H267.317C267.317 157.09 267.077 158.98 266.597 160.8C266.137 162.62 265.407 164.35 264.407 165.99C263.407 167.61 262.107 169.12 260.507 170.52C258.907 171.92 256.967 173.17 254.687 174.27L253.367 172.26C255.987 171 258.147 169.53 259.847 167.85C261.547 166.17 262.807 164.3 263.627 162.24C264.447 160.16 264.857 157.92 264.857 155.52V155.13ZM254.627 155.13H265.907V157.14H254.627V155.13ZM299.175 152.19H301.695V172.02H299.175V152.19ZM300.915 160.41H305.685V162.51H300.915V160.41ZM291.765 154.29H294.405C294.405 156.63 293.885 158.75 292.845 160.65C291.825 162.55 290.365 164.2 288.465 165.6C286.565 167 284.315 168.11 281.715 168.93L280.665 166.92C282.945 166.2 284.915 165.27 286.575 164.13C288.235 162.99 289.515 161.68 290.415 160.2C291.315 158.72 291.765 157.12 291.765 155.4V154.29ZM281.775 154.29H293.055V156.36H281.775V154.29ZM284.775 176.7H302.865V178.74H284.775V176.7ZM284.775 170.01H287.265V177.51H284.775V170.01Z" fill="#23236C"/>
<path d="M147.9 213.545V239H143.289V218.032H143.14L137.186 221.836V217.61L143.513 213.545H147.9ZM163.772 239.485C161.725 239.485 159.969 238.967 158.502 237.931C157.044 236.887 155.921 235.383 155.134 233.419C154.355 231.447 153.965 229.073 153.965 226.298C153.974 223.522 154.367 221.16 155.146 219.213C155.933 217.258 157.056 215.766 158.514 214.739C159.981 213.711 161.734 213.197 163.772 213.197C165.81 213.197 167.563 213.711 169.029 214.739C170.496 215.766 171.619 217.258 172.398 219.213C173.185 221.169 173.578 223.53 173.578 226.298C173.578 229.082 173.185 231.46 172.398 233.432C171.619 235.396 170.496 236.895 169.029 237.931C167.571 238.967 165.819 239.485 163.772 239.485ZM163.772 235.594C165.363 235.594 166.618 234.811 167.538 233.245C168.466 231.671 168.93 229.355 168.93 226.298C168.93 224.276 168.719 222.577 168.296 221.202C167.873 219.826 167.277 218.79 166.506 218.094C165.736 217.39 164.824 217.038 163.772 217.038C162.189 217.038 160.938 217.825 160.018 219.4C159.099 220.966 158.635 223.265 158.626 226.298C158.618 228.328 158.821 230.035 159.235 231.418C159.658 232.802 160.254 233.846 161.025 234.55C161.796 235.246 162.711 235.594 163.772 235.594ZM184.686 222.83H189.341V228.465H184.686V222.83ZM199.491 209.67H204.146V228.43H199.491V209.67ZM177.371 224.3L176.881 221.08C178.957 221.08 181.162 221.068 183.496 221.045C185.829 221.022 188.197 220.963 190.601 220.87C193.004 220.777 195.337 220.625 197.601 220.415L197.846 223.285C195.512 223.612 193.156 223.845 190.776 223.985C188.396 224.125 186.074 224.218 183.811 224.265C181.547 224.288 179.401 224.3 177.371 224.3ZM181.501 229.445H204.146V237.04H186.156V239.595H181.536V234.1H199.561V232.595H181.501V229.445ZM181.536 238.685H204.916V241.905H181.536V238.685ZM193.786 224.685H200.926V227.485H193.786V224.685ZM187.171 210.16C188.781 210.16 190.192 210.358 191.406 210.755C192.619 211.152 193.564 211.712 194.241 212.435C194.917 213.158 195.256 214.022 195.256 215.025C195.256 216.005 194.917 216.857 194.241 217.58C193.564 218.303 192.619 218.863 191.406 219.26C190.192 219.657 188.781 219.855 187.171 219.855C185.561 219.855 184.137 219.657 182.901 219.26C181.687 218.863 180.742 218.303 180.066 217.58C179.389 216.857 179.051 216.005 179.051 215.025C179.051 214.022 179.389 213.158 180.066 212.435C180.742 211.712 181.687 211.152 182.901 210.755C184.137 210.358 185.561 210.16 187.171 210.16ZM187.171 213.205C186.027 213.205 185.106 213.357 184.406 213.66C183.729 213.963 183.391 214.418 183.391 215.025C183.391 215.608 183.729 216.052 184.406 216.355C185.106 216.658 186.027 216.81 187.171 216.81C188.337 216.81 189.247 216.658 189.901 216.355C190.577 216.052 190.916 215.608 190.916 215.025C190.916 214.418 190.577 213.963 189.901 213.66C189.247 213.357 188.337 213.205 187.171 213.205ZM228.94 213.545V239H224.329V218.032H224.18L218.226 221.836V217.61L224.553 213.545H228.94ZM244.24 213.197C245.458 213.206 246.643 213.421 247.795 213.844C248.955 214.258 249.999 214.938 250.927 215.882C251.855 216.818 252.592 218.074 253.139 219.648C253.686 221.222 253.96 223.17 253.96 225.49C253.968 227.677 253.736 229.633 253.264 231.356C252.8 233.071 252.133 234.521 251.263 235.706C250.393 236.891 249.344 237.794 248.118 238.416C246.892 239.037 245.512 239.348 243.979 239.348C242.372 239.348 240.947 239.033 239.704 238.403C238.469 237.774 237.471 236.912 236.708 235.818C235.946 234.724 235.478 233.473 235.304 232.065H239.84C240.072 233.076 240.545 233.879 241.257 234.476C241.978 235.064 242.885 235.358 243.979 235.358C245.744 235.358 247.103 234.592 248.056 233.059C249.009 231.526 249.485 229.397 249.485 226.67H249.311C248.905 227.4 248.379 228.029 247.733 228.56C247.086 229.082 246.353 229.484 245.533 229.765C244.721 230.047 243.859 230.188 242.948 230.188C241.456 230.188 240.114 229.832 238.921 229.119C237.736 228.406 236.795 227.429 236.099 226.186C235.411 224.943 235.063 223.522 235.055 221.923C235.055 220.265 235.436 218.778 236.199 217.461C236.969 216.135 238.042 215.091 239.418 214.328C240.793 213.558 242.401 213.181 244.24 213.197ZM244.253 216.926C243.358 216.926 242.55 217.146 241.829 217.585C241.116 218.016 240.553 218.604 240.139 219.35C239.733 220.087 239.53 220.912 239.53 221.823C239.538 222.726 239.741 223.547 240.139 224.284C240.545 225.022 241.096 225.606 241.792 226.037C242.496 226.467 243.3 226.683 244.203 226.683C244.874 226.683 245.5 226.554 246.08 226.298C246.66 226.041 247.165 225.684 247.596 225.229C248.035 224.765 248.375 224.239 248.615 223.65C248.864 223.062 248.984 222.44 248.976 221.786C248.976 220.916 248.768 220.112 248.354 219.375C247.948 218.637 247.389 218.045 246.676 217.597C245.972 217.15 245.164 216.926 244.253 216.926ZM266.371 210.615C268.051 210.615 269.533 210.942 270.816 211.595C272.123 212.225 273.15 213.1 273.896 214.22C274.666 215.317 275.051 216.588 275.051 218.035C275.051 219.482 274.666 220.765 273.896 221.885C273.15 222.982 272.123 223.845 270.816 224.475C269.533 225.105 268.051 225.42 266.371 225.42C264.738 225.42 263.268 225.105 261.961 224.475C260.655 223.845 259.616 222.982 258.846 221.885C258.1 220.765 257.726 219.482 257.726 218.035C257.726 216.588 258.1 215.305 258.846 214.185C259.616 213.065 260.655 212.19 261.961 211.56C263.268 210.93 264.738 210.615 266.371 210.615ZM266.406 214.395C265.613 214.395 264.901 214.547 264.271 214.85C263.641 215.13 263.14 215.538 262.766 216.075C262.416 216.612 262.241 217.265 262.241 218.035C262.241 218.805 262.416 219.47 262.766 220.03C263.14 220.567 263.63 220.975 264.236 221.255C264.866 221.535 265.59 221.675 266.406 221.675C267.2 221.675 267.9 221.535 268.506 221.255C269.136 220.975 269.626 220.567 269.976 220.03C270.35 219.47 270.536 218.805 270.536 218.035C270.536 217.265 270.35 216.612 269.976 216.075C269.626 215.538 269.136 215.13 268.506 214.85C267.876 214.547 267.176 214.395 266.406 214.395ZM279.531 209.705H284.186V225.91H279.531V209.705ZM262.591 227.24H284.186V236.095H267.211V240.05H262.626V232.735H279.566V230.81H262.591V227.24ZM262.626 238.125H284.991V241.765H262.626V238.125ZM130.728 281V277.669L139.565 269.006C140.41 268.153 141.114 267.394 141.678 266.732C142.241 266.069 142.664 265.426 142.946 264.805C143.227 264.184 143.368 263.521 143.368 262.816C143.368 262.013 143.186 261.325 142.821 260.753C142.457 260.173 141.955 259.726 141.317 259.411C140.679 259.096 139.954 258.939 139.142 258.939C138.305 258.939 137.572 259.113 136.942 259.461C136.313 259.8 135.824 260.285 135.476 260.915C135.136 261.545 134.966 262.294 134.966 263.164H130.579C130.579 261.549 130.947 260.144 131.685 258.951C132.422 257.758 133.437 256.834 134.73 256.179C136.031 255.525 137.522 255.197 139.204 255.197C140.911 255.197 142.411 255.516 143.704 256.154C144.996 256.792 145.999 257.667 146.712 258.777C147.432 259.887 147.793 261.155 147.793 262.58C147.793 263.533 147.611 264.469 147.246 265.389C146.881 266.309 146.239 267.328 145.32 268.447C144.408 269.565 143.128 270.92 141.479 272.511L137.092 276.973V277.147H148.178V281H130.728ZM152.466 281V277.669L161.303 269.006C162.148 268.153 162.853 267.394 163.416 266.732C163.98 266.069 164.402 265.426 164.684 264.805C164.966 264.184 165.106 263.521 165.106 262.816C165.106 262.013 164.924 261.325 164.56 260.753C164.195 260.173 163.694 259.726 163.056 259.411C162.418 259.096 161.693 258.939 160.881 258.939C160.044 258.939 159.31 259.113 158.681 259.461C158.051 259.8 157.562 260.285 157.214 260.915C156.874 261.545 156.704 262.294 156.704 263.164H152.317C152.317 261.549 152.686 260.144 153.423 258.951C154.161 257.758 155.176 256.834 156.468 256.179C157.769 255.525 159.261 255.197 160.943 255.197C162.65 255.197 164.149 255.516 165.442 256.154C166.735 256.792 167.737 257.667 168.45 258.777C169.171 259.887 169.531 261.155 169.531 262.58C169.531 263.533 169.349 264.469 168.984 265.389C168.62 266.309 167.978 267.328 167.058 268.447C166.146 269.565 164.866 270.92 163.217 272.511L158.83 276.973V277.147H169.916V281H152.466ZM181.252 254.19H185.067V258.88C185.067 260.98 184.881 262.998 184.507 264.935C184.134 266.848 183.562 268.645 182.792 270.325C182.046 271.982 181.077 273.452 179.887 274.735C178.721 275.995 177.332 276.998 175.722 277.745L172.957 273.895C174.381 273.265 175.606 272.437 176.632 271.41C177.682 270.36 178.546 269.17 179.222 267.84C179.899 266.487 180.401 265.052 180.727 263.535C181.077 262.018 181.252 260.467 181.252 258.88V254.19ZM182.162 254.19H185.942V258.88C185.942 260.397 186.106 261.878 186.432 263.325C186.759 264.772 187.249 266.137 187.902 267.42C188.579 268.703 189.419 269.847 190.422 270.85C191.449 271.83 192.651 272.612 194.027 273.195L191.332 276.975C189.769 276.252 188.404 275.283 187.237 274.07C186.094 272.857 185.149 271.457 184.402 269.87C183.656 268.26 183.096 266.533 182.722 264.69C182.349 262.823 182.162 260.887 182.162 258.88V254.19ZM195.602 251.635H200.257V284.15H195.602V251.635ZM206.886 271.368C206.845 269.859 207.044 268.604 207.483 267.602C207.93 266.599 208.552 265.849 209.347 265.352C210.151 264.846 211.071 264.594 212.107 264.594C212.91 264.594 213.664 264.764 214.369 265.103C215.073 265.435 215.881 266.002 216.792 266.806C217.314 267.254 217.745 267.589 218.085 267.813C218.425 268.037 218.814 268.148 219.253 268.148C219.883 268.148 220.393 267.908 220.782 267.428C221.18 266.939 221.366 266.201 221.341 265.215H224.946C224.987 266.715 224.78 267.966 224.324 268.969C223.877 269.971 223.251 270.725 222.448 271.231C221.644 271.728 220.736 271.977 219.726 271.977C218.897 271.977 218.126 271.803 217.414 271.455C216.701 271.107 215.902 270.547 215.015 269.777C214.468 269.296 214.029 268.952 213.698 268.745C213.374 268.538 212.997 268.434 212.566 268.434C211.962 268.434 211.456 268.662 211.05 269.118C210.652 269.565 210.462 270.315 210.478 271.368H206.886ZM229.063 281V277.669L237.9 269.006C238.745 268.153 239.449 267.394 240.013 266.732C240.576 266.069 240.999 265.426 241.281 264.805C241.562 264.184 241.703 263.521 241.703 262.816C241.703 262.013 241.521 261.325 241.156 260.753C240.792 260.173 240.29 259.726 239.652 259.411C239.014 259.096 238.289 258.939 237.477 258.939C236.64 258.939 235.907 259.113 235.277 259.461C234.648 259.8 234.159 260.285 233.811 260.915C233.471 261.545 233.301 262.294 233.301 263.164H228.914C228.914 261.549 229.282 260.144 230.02 258.951C230.757 257.758 231.772 256.834 233.065 256.179C234.366 255.525 235.857 255.197 237.539 255.197C239.246 255.197 240.746 255.516 242.039 256.154C243.331 256.792 244.334 257.667 245.047 258.777C245.767 259.887 246.128 261.155 246.128 262.58C246.128 263.533 245.946 264.469 245.581 265.389C245.216 266.309 244.574 267.328 243.654 268.447C242.743 269.565 241.463 270.92 239.814 272.511L235.426 276.973V277.147H246.513V281H229.063ZM259.936 281.348C258.147 281.348 256.556 281.041 255.164 280.428C253.78 279.815 252.686 278.962 251.882 277.868C251.079 276.774 250.652 275.511 250.602 274.077H255.276C255.317 274.765 255.545 275.366 255.959 275.879C256.373 276.385 256.924 276.778 257.612 277.06C258.3 277.342 259.071 277.483 259.924 277.483C260.835 277.483 261.643 277.325 262.348 277.01C263.052 276.687 263.603 276.24 264.001 275.668C264.398 275.096 264.593 274.437 264.585 273.692C264.593 272.921 264.394 272.242 263.988 271.653C263.582 271.065 262.994 270.605 262.223 270.274C261.461 269.942 260.541 269.777 259.464 269.777H257.214V266.222H259.464C260.351 266.222 261.125 266.069 261.788 265.762C262.46 265.455 262.986 265.025 263.367 264.469C263.748 263.906 263.934 263.256 263.926 262.518C263.934 261.797 263.773 261.172 263.441 260.641C263.118 260.103 262.658 259.684 262.062 259.386C261.473 259.088 260.782 258.939 259.986 258.939C259.207 258.939 258.486 259.079 257.824 259.361C257.161 259.643 256.626 260.045 256.22 260.567C255.814 261.08 255.599 261.694 255.574 262.406H251.137C251.17 260.981 251.58 259.73 252.367 258.653C253.163 257.567 254.223 256.722 255.549 256.117C256.875 255.504 258.362 255.197 260.011 255.197C261.71 255.197 263.185 255.516 264.436 256.154C265.695 256.784 266.669 257.634 267.357 258.702C268.044 259.771 268.388 260.952 268.388 262.245C268.396 263.678 267.974 264.88 267.12 265.849C266.275 266.819 265.165 267.452 263.789 267.751V267.95C265.579 268.198 266.951 268.861 267.903 269.938C268.865 271.007 269.341 272.337 269.333 273.928C269.333 275.353 268.927 276.629 268.115 277.756C267.311 278.875 266.201 279.753 264.784 280.391C263.375 281.029 261.759 281.348 259.936 281.348ZM280.647 254.19H284.462V258.88C284.462 260.98 284.275 262.998 283.902 264.935C283.529 266.848 282.957 268.645 282.187 270.325C281.44 271.982 280.472 273.452 279.282 274.735C278.115 275.995 276.727 276.998 275.117 277.745L272.352 273.895C273.775 273.265 275 272.437 276.027 271.41C277.077 270.36 277.94 269.17 278.617 267.84C279.294 266.487 279.795 265.052 280.122 263.535C280.472 262.018 280.647 260.467 280.647 258.88V254.19ZM281.557 254.19H285.337V258.88C285.337 260.397 285.5 261.878 285.827 263.325C286.154 264.772 286.644 266.137 287.297 267.42C287.974 268.703 288.814 269.847 289.817 270.85C290.844 271.83 292.045 272.612 293.422 273.195L290.727 276.975C289.164 276.252 287.799 275.283 286.632 274.07C285.489 272.857 284.544 271.457 283.797 269.87C283.05 268.26 282.49 266.533 282.117 264.69C281.744 262.823 281.557 260.887 281.557 258.88V254.19ZM294.997 251.635H299.652V284.15H294.997V251.635Z" fill="#FF5B5B"/>
</svg>
