<svg width="60" height="13" viewBox="0 0 60 13" fill="none" xmlns="http://www.w3.org/2000/svg">
<path d="M9.58108 12.2773H6.37823L4.58998 7.90012C4.46542 7.59763 4.34087 7.4019 4.21631 7.31293C4.10955 7.22396 3.87823 7.17948 3.52236 7.17948H3.01524V12.2773H-0.000771537V-0.000236452H4.77681C6.4672 -0.000236452 7.63268 0.417913 8.27325 1.25421C8.80706 1.98375 9.07396 2.82895 9.07396 3.7898C9.07396 5.40902 8.34442 6.44104 6.88535 6.88588C7.27681 7.1172 7.54371 7.393 7.68606 7.71329L9.58108 12.2773ZM3.01524 6.11186H4.34976C4.88357 6.11186 5.30172 5.88055 5.60421 5.41791C5.9067 4.95528 6.05795 4.38588 6.05795 3.70973C6.05795 3.03357 5.9067 2.42859 5.60421 1.89478C5.30172 1.36097 4.88357 1.09407 4.34976 1.09407H3.01524V6.11186ZM15.7116 8.88766H11.3077L10.2935 12.2773H8.61197L12.3486 -0.000236452H15.8451L19.6351 12.2773H16.7258L15.7116 8.88766ZM15.2846 7.44638L13.523 1.49443L11.7347 7.44638H15.2846ZM24.741 8.03357V12.2773H21.725V8.06026L17.9349 -0.000236452H20.9509L23.7534 6.37877L26.7694 -0.000236452H28.5043L24.741 8.03357ZM39.4913 3.14923C39.4913 4.57272 38.8952 5.50688 37.7031 5.95172C39.1977 6.44994 39.9451 7.46418 39.9451 8.99443C39.9451 9.9019 39.6337 10.6759 39.0109 11.3165C38.3881 11.9571 37.3294 12.2773 35.8347 12.2773H31.0305V-0.000236452H35.3543C36.8846 -0.000236452 37.9522 0.320048 38.5572 0.960618C39.1799 1.60119 39.4913 2.33072 39.4913 3.14923ZM34.0465 5.47129H35.0607C36.0216 5.47129 36.502 4.74176 36.502 3.28268C36.502 1.82361 36.0216 1.09407 35.0607 1.09407H34.0465V5.47129ZM34.0465 11.183H35.4344C36.4486 11.183 36.9557 10.4535 36.9557 8.99443C36.9557 8.33606 36.8134 7.76667 36.5287 7.28624C36.2618 6.78802 35.897 6.53891 35.4344 6.53891H34.0465V11.183ZM46.069 8.88766H41.6651L40.6509 12.2773H38.9694L42.706 -0.000236452H46.2025L49.9925 12.2773H47.0833L46.069 8.88766ZM45.642 7.44638L43.8804 1.49443L42.0922 7.44638H45.642ZM60.0094 -0.000236452V12.2773H56.86L51.7087 3.14923V12.2773H49.9205V-0.000236452H53.0699L58.2212 9.12788V-0.000236452H60.0094Z" fill="black"/>
</svg>
