<svg width="200" height="40" viewBox="0 0 200 40" fill="none" xmlns="http://www.w3.org/2000/svg">
<path d="M15.33 9.5H22.41V30.5H15.33V9.5ZM8.79 30.5H1.71V9.5H8.79V30.5ZM15.81 22.76H8.31V16.94H15.81V22.76ZM34.0413 30.5V27.59L33.5613 26.81V21.29C33.5613 20.49 33.3113 19.88 32.8113 19.46C32.3313 19.04 31.5413 18.83 30.4413 18.83C29.7013 18.83 28.9513 18.95 28.1913 19.19C27.4313 19.41 26.7813 19.72 26.2413 20.12L24.0813 15.65C25.0413 15.05 26.1913 14.59 27.5313 14.27C28.8713 13.95 30.1813 13.79 31.4613 13.79C34.2813 13.79 36.4613 14.42 38.0013 15.68C39.5613 16.94 40.3413 18.94 40.3413 21.68V30.5H34.0413ZM29.3913 30.8C28.0513 30.8 26.9313 30.57 26.0313 30.11C25.1313 29.65 24.4513 29.04 23.9913 28.28C23.5313 27.5 23.3013 26.64 23.3013 25.7C23.3013 24.64 23.5713 23.74 24.1113 23C24.6513 22.26 25.4713 21.7 26.5713 21.32C27.6913 20.94 29.1013 20.75 30.8013 20.75H34.2213V24.02H31.8813C31.1613 24.02 30.6313 24.14 30.2913 24.38C29.9713 24.6 29.8113 24.94 29.8113 25.4C29.8113 25.78 29.9513 26.1 30.2313 26.36C30.5313 26.6 30.9313 26.72 31.4313 26.72C31.8913 26.72 32.3113 26.6 32.6913 26.36C33.0913 26.1 33.3813 25.7 33.5613 25.16L34.4313 27.17C34.1713 28.39 33.6213 29.3 32.7813 29.9C31.9413 30.5 30.8113 30.8 29.3913 30.8ZM35.5713 12.53C34.8113 12.53 34.1713 12.29 33.6513 11.81C33.1313 11.33 32.8713 10.69 32.8713 9.89C32.8713 9.09 33.1313 8.45 33.6513 7.97C34.1713 7.47 34.8113 7.22 35.5713 7.22C36.3313 7.22 36.9713 7.47 37.4913 7.97C38.0113 8.45 38.2713 9.09 38.2713 9.89C38.2713 10.69 38.0113 11.33 37.4913 11.81C36.9713 12.29 36.3313 12.53 35.5713 12.53ZM28.9113 12.53C28.1513 12.53 27.5113 12.29 26.9913 11.81C26.4713 11.33 26.2113 10.69 26.2113 9.89C26.2113 9.09 26.4713 8.45 26.9913 7.97C27.5113 7.47 28.1513 7.22 28.9113 7.22C29.6713 7.22 30.3113 7.47 30.8313 7.97C31.3513 8.45 31.6113 9.09 31.6113 9.89C31.6113 10.69 31.3513 11.33 30.8313 11.81C30.3113 12.29 29.6713 12.53 28.9113 12.53ZM51.7015 30.5V27.59L51.2215 26.81V21.29C51.2215 20.49 50.9715 19.88 50.4715 19.46C49.9915 19.04 49.2015 18.83 48.1015 18.83C47.3615 18.83 46.6115 18.95 45.8515 19.19C45.0915 19.41 44.4415 19.72 43.9015 20.12L41.7415 15.65C42.7015 15.05 43.8515 14.59 45.1915 14.27C46.5315 13.95 47.8415 13.79 49.1215 13.79C51.9415 13.79 54.1215 14.42 55.6615 15.68C57.2215 16.94 58.0015 18.94 58.0015 21.68V30.5H51.7015ZM47.0515 30.8C45.7115 30.8 44.5915 30.57 43.6915 30.11C42.7915 29.65 42.1115 29.04 41.6515 28.28C41.1915 27.5 40.9615 26.64 40.9615 25.7C40.9615 24.64 41.2315 23.74 41.7715 23C42.3115 22.26 43.1315 21.7 44.2315 21.32C45.3515 20.94 46.7615 20.75 48.4615 20.75H51.8815V24.02H49.5415C48.8215 24.02 48.2915 24.14 47.9515 24.38C47.6315 24.6 47.4715 24.94 47.4715 25.4C47.4715 25.78 47.6115 26.1 47.8915 26.36C48.1915 26.6 48.5915 26.72 49.0915 26.72C49.5515 26.72 49.9715 26.6 50.3515 26.36C50.7515 26.1 51.0415 25.7 51.2215 25.16L52.0915 27.17C51.8315 28.39 51.2815 29.3 50.4415 29.9C49.6015 30.5 48.4715 30.8 47.0515 30.8ZM68.0646 36.62C66.4446 36.62 64.9246 36.45 63.5046 36.11C62.0846 35.77 60.8646 35.26 59.8446 34.58L62.1246 29.96C62.7646 30.46 63.5746 30.85 64.5546 31.13C65.5546 31.43 66.4946 31.58 67.3746 31.58C68.7746 31.58 69.7746 31.28 70.3746 30.68C70.9746 30.1 71.2746 29.26 71.2746 28.16V26.78L71.5746 21.68L71.6046 16.58V14.09H78.0546V27.23C78.0546 30.41 77.1746 32.77 75.4146 34.31C73.6546 35.85 71.2046 36.62 68.0646 36.62ZM66.7446 29.6C65.3646 29.6 64.0746 29.28 62.8746 28.64C61.6746 27.98 60.7046 27.06 59.9646 25.88C59.2246 24.7 58.8546 23.3 58.8546 21.68C58.8546 20.06 59.2246 18.66 59.9646 17.48C60.7046 16.3 61.6746 15.39 62.8746 14.75C64.0746 14.11 65.3646 13.79 66.7446 13.79C68.1646 13.79 69.3246 14.07 70.2246 14.63C71.1446 15.19 71.8246 16.06 72.2646 17.24C72.7046 18.4 72.9246 19.88 72.9246 21.68C72.9246 23.48 72.7046 24.97 72.2646 26.15C71.8246 27.31 71.1446 28.18 70.2246 28.76C69.3246 29.32 68.1646 29.6 66.7446 29.6ZM68.5446 24.32C69.0846 24.32 69.5646 24.21 69.9846 23.99C70.4046 23.77 70.7346 23.46 70.9746 23.06C71.2146 22.66 71.3346 22.2 71.3346 21.68C71.3346 21.14 71.2146 20.68 70.9746 20.3C70.7346 19.9 70.4046 19.6 69.9846 19.4C69.5646 19.18 69.0846 19.07 68.5446 19.07C68.0246 19.07 67.5446 19.18 67.1046 19.4C66.6846 19.6 66.3446 19.9 66.0846 20.3C65.8446 20.68 65.7246 21.14 65.7246 21.68C65.7246 22.2 65.8446 22.66 66.0846 23.06C66.3446 23.46 66.6846 23.77 67.1046 23.99C67.5446 24.21 68.0246 24.32 68.5446 24.32ZM88.6127 30.8C86.6127 30.8 84.8627 30.43 83.3627 29.69C81.8827 28.95 80.7327 27.94 79.9127 26.66C79.0927 25.36 78.6827 23.9 78.6827 22.28C78.6827 20.62 79.0827 19.15 79.8827 17.87C80.7027 16.59 81.8127 15.59 83.2127 14.87C84.6327 14.15 86.2227 13.79 87.9827 13.79C89.6027 13.79 91.0927 14.11 92.4527 14.75C93.8327 15.39 94.9327 16.34 95.7527 17.6C96.5927 18.86 97.0127 20.42 97.0127 22.28C97.0127 22.52 97.0027 22.79 96.9827 23.09C96.9627 23.37 96.9427 23.63 96.9227 23.87H84.2927V20.6H93.3227L90.7727 21.47C90.7727 20.83 90.6527 20.29 90.4127 19.85C90.1927 19.39 89.8827 19.04 89.4827 18.8C89.0827 18.54 88.6027 18.41 88.0427 18.41C87.4827 18.41 86.9927 18.54 86.5727 18.8C86.1727 19.04 85.8627 19.39 85.6427 19.85C85.4227 20.29 85.3127 20.83 85.3127 21.47V22.49C85.3127 23.19 85.4527 23.79 85.7327 24.29C86.0127 24.79 86.4127 25.17 86.9327 25.43C87.4527 25.67 88.0827 25.79 88.8227 25.79C89.5827 25.79 90.2027 25.69 90.6827 25.49C91.1827 25.29 91.7027 24.99 92.2427 24.59L95.7827 28.16C94.9827 29.02 93.9927 29.68 92.8127 30.14C91.6527 30.58 90.2527 30.8 88.6127 30.8ZM109.052 13.79C110.312 13.79 111.452 14.05 112.472 14.57C113.492 15.07 114.292 15.86 114.872 16.94C115.472 18.02 115.772 19.42 115.772 21.14V30.5H108.992V22.31C108.992 21.29 108.812 20.57 108.452 20.15C108.092 19.71 107.602 19.49 106.982 19.49C106.522 19.49 106.092 19.6 105.692 19.82C105.312 20.02 105.002 20.36 104.762 20.84C104.542 21.32 104.432 21.97 104.432 22.79V30.5H97.6523V14.09H104.102V18.89L102.812 17.51C103.452 16.27 104.312 15.34 105.392 14.72C106.492 14.1 107.712 13.79 109.052 13.79ZM117.067 24.38V19.28H126.067V24.38H117.067ZM127.616 30.5V9.5H137.966C140.306 9.5 142.366 9.93 144.146 10.79C145.926 11.63 147.316 12.83 148.316 14.39C149.316 15.95 149.816 17.81 149.816 19.97C149.816 22.15 149.316 24.03 148.316 25.61C147.316 27.17 145.926 28.38 144.146 29.24C142.366 30.08 140.306 30.5 137.966 30.5H127.616ZM134.696 24.98H137.666C138.666 24.98 139.536 24.79 140.276 24.41C141.036 24.03 141.626 23.47 142.046 22.73C142.466 21.97 142.676 21.05 142.676 19.97C142.676 18.91 142.466 18.01 142.046 17.27C141.626 16.53 141.036 15.97 140.276 15.59C139.536 15.21 138.666 15.02 137.666 15.02H134.696V24.98ZM160.621 30.5V27.59L160.141 26.81V21.29C160.141 20.49 159.891 19.88 159.391 19.46C158.911 19.04 158.121 18.83 157.021 18.83C156.281 18.83 155.531 18.95 154.771 19.19C154.011 19.41 153.361 19.72 152.821 20.12L150.661 15.65C151.621 15.05 152.771 14.59 154.111 14.27C155.451 13.95 156.761 13.79 158.041 13.79C160.861 13.79 163.041 14.42 164.581 15.68C166.141 16.94 166.921 18.94 166.921 21.68V30.5H160.621ZM155.971 30.8C154.631 30.8 153.511 30.57 152.611 30.11C151.711 29.65 151.031 29.04 150.571 28.28C150.111 27.5 149.881 26.64 149.881 25.7C149.881 24.64 150.151 23.74 150.691 23C151.231 22.26 152.051 21.7 153.151 21.32C154.271 20.94 155.681 20.75 157.381 20.75H160.801V24.02H158.461C157.741 24.02 157.211 24.14 156.871 24.38C156.551 24.6 156.391 24.94 156.391 25.4C156.391 25.78 156.531 26.1 156.811 26.36C157.111 26.6 157.511 26.72 158.011 26.72C158.471 26.72 158.891 26.6 159.271 26.36C159.671 26.1 159.961 25.7 160.141 25.16L161.011 27.17C160.751 28.39 160.201 29.3 159.361 29.9C158.521 30.5 157.391 30.8 155.971 30.8ZM167.752 30.5V26.6L176.482 16.88L177.592 19.04H167.992V14.09H183.082V17.99L174.352 27.71L173.242 25.55H183.412V30.5H167.752ZM190.381 30.8C188.981 30.8 187.601 30.65 186.241 30.35C184.881 30.05 183.781 29.66 182.941 29.18L184.801 24.71C185.581 25.17 186.481 25.53 187.501 25.79C188.541 26.05 189.551 26.18 190.531 26.18C191.351 26.18 191.901 26.11 192.181 25.97C192.481 25.83 192.631 25.64 192.631 25.4C192.631 25.16 192.461 24.99 192.121 24.89C191.781 24.77 191.331 24.68 190.771 24.62C190.211 24.56 189.591 24.49 188.911 24.41C188.251 24.31 187.581 24.17 186.901 23.99C186.221 23.81 185.601 23.54 185.041 23.18C184.481 22.82 184.031 22.34 183.691 21.74C183.351 21.12 183.181 20.34 183.181 19.4C183.181 18.36 183.491 17.42 184.111 16.58C184.751 15.74 185.691 15.07 186.931 14.57C188.191 14.05 189.741 13.79 191.581 13.79C192.781 13.79 193.981 13.9 195.181 14.12C196.381 14.34 197.411 14.68 198.271 15.14L196.411 19.61C195.571 19.15 194.741 18.84 193.921 18.68C193.121 18.5 192.371 18.41 191.671 18.41C190.811 18.41 190.221 18.49 189.901 18.65C189.601 18.81 189.451 18.99 189.451 19.19C189.451 19.43 189.621 19.61 189.961 19.73C190.301 19.85 190.751 19.94 191.311 20C191.871 20.06 192.481 20.14 193.141 20.24C193.821 20.32 194.491 20.46 195.151 20.66C195.831 20.84 196.451 21.11 197.011 21.47C197.571 21.83 198.021 22.32 198.361 22.94C198.701 23.54 198.871 24.31 198.871 25.25C198.871 26.23 198.561 27.15 197.941 28.01C197.321 28.85 196.381 29.53 195.121 30.05C193.861 30.55 192.281 30.8 190.381 30.8Z" fill="white"/>
</svg>
