<svg width="1000" height="512" viewBox="0 0 1000 512" fill="none" xmlns="http://www.w3.org/2000/svg">
<path d="M155.129 20C155.129 8.9543 164.083 0 175.129 0H339.531C345.353 0 350.885 2.53658 354.685 6.94751L495.129 170H155.129V20Z" fill="#6DACFF"/>
<path d="M0 20C0 8.9543 8.9543 0 20 0H190.269C195.99 0 201.437 2.45031 205.233 6.73122L350 170H0V20Z" fill="#97C4FF"/>
<rect x="30" y="42.0977" width="970" height="275" rx="20" fill="#97C4FF"/>
<rect x="30" y="87.0977" width="940" height="200.469" rx="20" fill="white"/>
<path d="M0 137.098C0 126.052 8.9543 117.098 20 117.098H980C991.046 117.098 1000 126.052 1000 137.098V511.14H0V137.098Z" fill="#97C4FF"/>
</svg>
